<svg xmlns="http://www.w3.org/2000/svg" width="22" height="22" viewBox="0 0 22 22"><path fill="#7E868C" d="M10.048 16.426l3.487-3.669c1.328-1.396 1.328-3.65 0-5.045a3.326 3.326 0 00-4.866 0L3.496 13.26c-1.6 1.685-1.6 4.409.003 6.095a4.01 4.01 0 005.868 0l8.536-9.16c1.86-1.956 1.86-5.124-.003-7.083-1.875-1.974-4.93-1.974-6.806 0l-6.825 7.18.725.69L11.82 3.8c1.482-1.56 3.875-1.56 5.356 0 1.496 1.573 1.496 4.135 0 5.709l-8.536 9.16c-1.22 1.283-3.192 1.283-4.415-.004-1.236-1.3-1.236-3.419 0-4.72l5.173-5.547a2.325 2.325 0 013.413.003c.96 1.01.96 2.657 0 3.667l-3.487 3.669.725.689z"/></svg>