<svg xmlns="http://www.w3.org/2000/svg" width="72" height="72" fill="none" viewBox="0 0 72 72"><rect width="70.222" height="70.222" x=".889" y=".889" fill="#EAE9E8" fill-opacity=".5" stroke="#fff" stroke-width="1.778" rx="3.111"/><path fill="#fff" fill-rule="evenodd" d="M37.711 35.249h9.224a1.025 1.025 0 100-2.05h-6.75l9.981-9.981-1.449-1.45-9.981 9.982V25a1.025 1.025 0 00-2.05 0v9.224c0 .566.459 1.025 1.025 1.025zm-3.569 1.372l-9.223.105a1.025 1.025 0 10.023 2.05l6.75-.077-9.868 10.094 1.465 1.432 9.868-10.093.077 6.749a1.025 1.025 0 102.05-.023l-.106-9.224a1.025 1.025 0 00-1.036-1.013z" clip-rule="evenodd"/></svg>