<svg xmlns="http://www.w3.org/2000/svg" width="80" height="80" fill="none" viewBox="0 0 80 80"><path fill="#FFF" fill-rule="evenodd" d="M4 2h72a2 2 0 012 2v72a2 2 0 01-2 2H4a2 2 0 01-2-2V4a2 2 0 012-2zM0 4a4 4 0 014-4h72a4 4 0 014 4v72a4 4 0 01-4 4H4a4 4 0 01-4-4V4zm54.426 30.627l3.1-9.628-1.957-1.958-9.628 3.1L47.9 28.1l4.716-1.544-9.03 9.03L45 36.998l8.995-8.994-1.527 4.664 1.958 1.958zM34.627 54.426L25 57.526l-1.958-1.958 3.1-9.628L28.1 47.9l-1.543 4.715 9.029-9.029L37 45l-8.994 8.995 4.663-1.526 1.958 1.958z" clip-rule="evenodd"/></svg>