<svg xmlns="http://www.w3.org/2000/svg" width="64" height="54" fill="none" viewBox="0 0 64 54"><path fill="#3A85FF" fill-rule="evenodd" d="M0 26.56V8.941c13.442-11.92 50.558-11.92 64 0V26.56c-9.122-5.551-18.529-8.67-27.968-9.36C40.112 18.705 43 22.427 43 26.78c0 4.105-2.567 7.649-6.28 9.302 9.216-.79 18.388-3.893 27.281-9.305v17.617c-13.442 11.92-50.558 11.92-64 0V26.778c8.9 5.416 18.072 8.516 27.28 9.305C23.567 34.43 21 30.886 21 26.781c0-4.354 2.887-8.076 6.966-9.582C18.52 17.891 9.113 21.013 0 26.56z" clip-rule="evenodd"/></svg>