<svg xmlns="http://www.w3.org/2000/svg" width="192" height="68" fill="none" viewBox="0 0 192 68"><path fill="url(#paint0_linear_2008_4227)" fill-rule="evenodd" d="M122.254 37.905l6.326-5.858h2.608v12.33h-2.608v-5.97l-6.326 5.914h-2.607V32.048h2.607v5.857zm7.214-8.033c-.333.223-.777.446-1.443.67-.61.222-1.498.334-2.663.334-1.166 0-2.053-.112-2.664-.335-.61-.223-1.109-.446-1.442-.67v-3.29c.61.446 1.276.725 1.997.892.722.167 1.387.279 2.053.279.666 0 1.387-.112 2.164-.28.777-.166 1.387-.445 1.887-.892v3.292h.111zm-72.132 3.403c-.555.28-1 .558-1.277.837v8.2c.333.28.722.559 1.277.838.499.279 1.165.502 1.886.725.721.223 1.554.39 2.497.502.943.167 1.942.223 2.996.223 1.11 0 2.109-.056 3.052-.223.888-.112 1.72-.28 2.441-.502.722-.168 1.332-.447 1.887-.725.5-.28.943-.558 1.22-.837v-8.2c-.277-.28-.72-.559-1.22-.838-.555-.279-1.165-.502-1.887-.725a61.684 61.684 0 00-2.441-.502 25.147 25.147 0 00-3.052-.167c-1.11 0-2.108.055-2.996.167-.943.111-1.776.279-2.497.502-.721.223-1.387.446-1.886.725zM69.763 39.3c-.61.223-1.331.39-2.164.558-.832.168-1.83.223-2.885.223-1.11 0-2.053-.056-2.885-.223-.832-.167-1.554-.335-2.109-.558-.554-.167-1.054-.39-1.387-.613a25.66 25.66 0 00-.253-.168c-.216-.141-.387-.253-.468-.334.069-.047.147-.102.24-.168.13-.092.286-.204.481-.335.26-.173.62-.313 1.028-.472l.36-.141c.554-.223 1.276-.39 2.108-.558.832-.168 1.775-.223 2.885-.223 1.11 0 2.053.056 2.885.223.833.167 1.554.335 2.164.558.123.05.243.096.359.14.41.16.77.3 1.028.473l.254.168c.216.141.387.253.468.334-.069.047-.147.102-.24.168-.13.092-.286.204-.481.335-.333.167-.833.39-1.388.613zm12.762-3.627h-5.881v-3.626h-2.608v12.274h2.608v-4.184h5.881v4.184h2.608V31.99h-2.608v3.682zm16.203 8.703H96.12v-7.81h-3.607v3.682c0 .67-.055 1.283-.11 1.785-.112.502-.278.948-.555 1.283-.278.335-.722.614-1.277.781-.555.168-1.276.28-2.22.28H85.8v-2.623h.444c.72 0 1.165-.167 1.442-.558.278-.39.389-1.004.389-1.952v-7.197h10.708v12.33h-.055zm1.942-11.1c-.555.278-.999.557-1.276.836v8.368c.333.279.721.558 1.276.837.5.279 1.166.502 1.887.725.721.223 1.553.39 2.497.502.943.168 1.942.223 2.996.223 2.053 0 3.828-.223 5.216-.613 1.387-.447 2.441-.893 3.107-1.45v1.784h2.608V32.16h-2.608v1.785c-.666-.558-1.72-1.06-3.107-1.45-1.388-.391-3.163-.614-5.216-.614-1.11 0-2.109.055-2.996.167-.944.111-1.776.279-2.497.502-.721.223-1.387.446-1.887.725zM113.1 39.3c-.61.223-1.331.39-2.164.558-.832.168-1.831.223-2.885.223-1.11 0-2.053-.056-2.885-.223-.833-.167-1.554-.335-2.109-.558-.555-.167-1.054-.39-1.387-.613l-.253-.168c-.217-.141-.387-.253-.468-.334.069-.047.147-.102.239-.168.13-.092.287-.204.482-.335.259-.173.619-.313 1.028-.472l.359-.141c.555-.223 1.276-.39 2.109-.558.832-.168 1.775-.223 2.885-.223 1.11 0 2.053.056 2.885.223.833.167 1.554.335 2.164.558.123.05.243.096.359.14.409.16.769.3 1.028.473l.254.168c.216.141.386.253.468.334-.069.047-.148.102-.24.168-.13.092-.287.204-.482.335-.333.167-.832.39-1.387.613zm27.243-3.627h-5.826v-3.626h-2.608v12.274h2.552v-4.184h5.882v4.184h2.608V31.99h-2.608v3.682z" clip-rule="evenodd"/><path fill="url(#paint1_linear_2008_4227)" d="M45.556 4.128c-1.498-.78-3.33-1.45-5.383-2.064-2.053-.558-4.383-1.06-6.991-1.506A69.363 69.363 0 0024.47 0c-3.052 0-5.881.167-8.434.558-2.663.39-4.994.892-7.102 1.506A34.22 34.22 0 003.55 4.128C2.053 4.91.832 5.746 0 6.528v23.318c.832.781 2.053 1.618 3.551 2.343a25.919 25.919 0 005.383 2.064c2.108.614 4.494 1.116 7.102 1.507 2.608.39 5.438.613 8.434.613 3.163 0 6.104-.223 8.712-.613 2.608-.335 4.938-.837 6.991-1.507a28.606 28.606 0 005.383-2.064c1.498-.78 2.663-1.562 3.495-2.343V6.527c-.832-.78-1.997-1.618-3.495-2.399zm-7.047 1.06c0-.39.333-.613.721-.502l.666.167c.388.112.721.503.721.893v1.618c0 .39-.333.614-.721.502l-.666-.167c-.388-.112-.721-.502-.721-.893V5.188zM32.46 4.017c0-.39.333-.67.72-.614.223.056.445.056.722.112.389.055.722.446.722.836V5.97c0 .39-.333.67-.722.614-.222-.056-.444-.056-.721-.112-.389-.055-.721-.446-.721-.837V4.017zm-6.104-.558c0-.39.333-.725.721-.67.222 0 .5 0 .721.056.389 0 .722.39.722.781v1.618c0 .39-.333.67-.722.67-.221 0-.499 0-.72-.056a.737.737 0 01-.722-.726V3.46zm-6.16.111c0-.39.334-.725.722-.78h.721c.389 0 .722.278.722.669v1.618c0 .39-.333.725-.722.725-.222 0-.499 0-.721.056-.388 0-.721-.28-.721-.67V3.57zm-6.103.781c0-.39.333-.78.721-.836.222-.056.444-.056.722-.112a.616.616 0 01.721.614v1.617c0 .391-.333.782-.721.837-.222.056-.444.056-.722.112-.388.056-.721-.167-.721-.614V4.351zM8.1 5.801c0-.39.333-.78.722-.892l.665-.167c.389-.112.722.111.722.502v1.618c0 .39-.333.78-.722.892l-.665.168c-.389.111-.722-.112-.722-.502V5.802zM2.22 7.867c0-.39.277-.837.665-1.004.222-.112.444-.168.666-.28.389-.166.666.057.666.447v1.618c0 .39-.333.837-.666.948-.222.112-.444.168-.666.28-.333.223-.665 0-.665-.391V7.866zm2.053 20.809c0 .39-.333.613-.666.446-.222-.112-.444-.168-.666-.28-.389-.11-.721-.557-.721-.948v-1.617c0-.39.277-.558.665-.447.222.112.444.168.666.28.389.167.666.557.666.948.056.558.056 1.06.056 1.618zm5.937 1.84c0 .391-.333.614-.722.503l-.665-.168c-.389-.111-.722-.502-.722-.892V28.34c0-.39.333-.614.722-.502l.665.167c.389.112.722.502.722.893v1.617zm6.048 1.228c0 .39-.333.67-.721.613-.222-.055-.444-.055-.722-.111-.388-.056-.721-.446-.721-.837V29.79c0-.39.333-.67.721-.613.222.055.444.055.722.111.388.056.721.447.721.837v1.618zm6.104.502c0 .39-.333.725-.722.67-.222 0-.499 0-.721-.056-.388 0-.721-.39-.721-.781V30.46c0-.39.333-.67.721-.67.222 0 .5 0 .721.056.389 0 .722.335.722.725v1.674zm6.159-.112c0 .39-.333.726-.722.781-.221 0-.499 0-.72.056-.39 0-.722-.279-.722-.67v-1.617c0-.39.333-.725.721-.725.222 0 .5 0 .721-.056.389 0 .722.279.722.67v1.561zm6.104-.725c0 .39-.333.781-.722.837-.222.056-.444.056-.721.111a.616.616 0 01-.721-.613v-1.618c0-.39.333-.781.72-.837.223-.056.445-.056.722-.111.389-.056.722.167.722.613v1.618zm5.992-1.45c0 .39-.333.78-.721.892l-.666.168c-.388.111-.721-.112-.721-.503v-1.617c0-.39.333-.781.721-.893l.666-.167c.388-.112.721.111.721.502v1.618zm-1.775-8.592a48.224 48.224 0 01-6.104 1.563c-2.386.446-5.105.669-8.268.669-3.107 0-5.881-.223-8.267-.67-2.386-.446-4.384-.948-6.049-1.562-1.664-.557-2.996-1.171-3.94-1.84-.998-.614-1.664-1.116-1.997-1.395.333-.335 1.054-.781 1.998-1.395.998-.558 2.33-1.171 3.94-1.73a44.875 44.875 0 016.048-1.561c2.386-.39 5.104-.614 8.267-.614 3.108 0 5.882.223 8.268.614 2.386.446 4.383.948 6.104 1.562 1.664.558 2.996 1.171 3.94 1.73.998.613 1.664 1.115 1.997 1.394-.333.334-1.054.78-1.998 1.395-.943.669-2.275 1.283-3.94 1.84zm7.657 6.527c0 .391-.277.837-.666 1.005-.222.111-.444.167-.666.279-.388.167-.666-.056-.666-.447v-1.617c0-.391.333-.837.666-.949.222-.111.444-.167.666-.279.389-.167.666.056.666.446v1.563zm0-18.41c0 .391-.277.559-.666.447-.222-.111-.444-.167-.666-.279-.388-.167-.666-.558-.666-.948V7.085c0-.39.333-.614.666-.446.222.111.444.167.666.279.389.167.666.613.666 1.004v1.562z"/><path fill="#fff" d="M58.178 18.832c.775 0 1.384-.22 1.715-.713.332-.495.498-1.264.498-2.362v-4.669h11.12v7.69h2.379v7.47h-2.38v-3.021H59.839v3.02H57.46v-7.415h.72zm10.788-3.295h-4.094c0 .55-.055 1.044-.166 1.428-.11.385-.221.714-.332.934-.166.274-.276.44-.442.604a1.306 1.306 0 01-.498.33h5.477v-3.296h.055zm8.244 1.373l6.306-5.822h2.6v12.139h-2.6v-5.823l-6.307 5.823h-2.6V11.143h2.6v5.767zm9.625-3.735c.276-.274.719-.549 1.272-.824.498-.274 1.162-.494 1.881-.714.72-.22 1.549-.384 2.49-.494.885-.11 1.88-.165 2.987-.165 2.047 0 3.817.22 5.2.605 1.383.384 2.434.878 3.098 1.428v-1.758h2.6v12.138h-2.655v-1.757c-.664.55-1.715.988-3.098 1.428-1.383.384-3.154.604-5.2.604-1.052 0-2.047-.055-2.988-.22-.94-.11-1.77-.274-2.49-.494-.719-.22-1.382-.44-1.88-.714a6.337 6.337 0 01-1.273-.824v-8.239h.056zm11.451 5.658c.83-.165 1.55-.33 2.158-.55.553-.22 1.051-.439 1.383-.604.332-.22.553-.384.719-.494-.111-.11-.387-.275-.719-.494-.332-.22-.83-.385-1.383-.605-.609-.22-1.328-.384-2.158-.549-.83-.165-1.77-.22-2.877-.22-1.106 0-2.046.055-2.876.22-.83.165-1.55.33-2.102.55-.554.22-1.052.384-1.383.604-.332.22-.554.384-.72.494.111.11.388.274.72.494.331.22.83.44 1.383.604.553.22 1.272.385 2.102.55.83.164 1.77.22 2.876.22 1.107 0 2.047-.056 2.877-.22zm8.741-5.657c.332-.275.774-.55 1.383-.824.608-.275 1.327-.495 2.157-.66.83-.22 1.77-.384 2.822-.494 1.051-.11 2.157-.22 3.319-.22V5.597h2.6v5.383c2.489.055 4.592.274 6.196.714 1.659.439 2.821.933 3.485 1.537v8.02c-.664.604-1.826 1.098-3.485 1.537-1.66.44-3.707.66-6.196.714v5.877h-2.6v-5.877c-1.217-.055-2.324-.11-3.319-.22a18.646 18.646 0 01-2.822-.494c-.83-.22-1.549-.439-2.157-.714-.609-.274-1.051-.549-1.383-.823v-8.074zm2.268 4.449c.387.22.94.384 1.604.604.664.22 1.494.384 2.434.549.941.165 2.047.274 3.32.33v-3.68a44.841 44.841 0 00-3.32.274c-.94.165-1.77.33-2.434.494a10.55 10.55 0 00-1.604.55c-.387.165-.664.33-.775.494.111.055.388.165.775.385zm9.958 1.427c1.272-.054 2.378-.164 3.319-.329.94-.165 1.77-.33 2.434-.55.664-.164 1.217-.384 1.604-.603.388-.165.664-.33.775-.44-.166-.11-.387-.274-.775-.494-.387-.165-.94-.385-1.604-.55-.664-.164-1.494-.384-2.434-.494-.996-.165-2.102-.22-3.319-.274v3.734zm12.945-2.142l6.306-5.822h2.6v12.139h-2.6v-5.823l-6.306 5.823h-2.601V11.143h2.601v5.767zm22.514 6.372h-2.6v-7.69h-3.596v3.625c0 .66-.055 1.264-.111 1.758-.11.494-.276.934-.553 1.263-.276.33-.719.604-1.272.77-.553.164-1.273.274-2.213.274h-2.545V20.7h.443c.719 0 1.162-.165 1.438-.549.277-.384.387-.989.387-1.922v-7.086h10.677v12.139h-.055zm17.704-2.032c-.609.549-1.605 1.043-3.043 1.427-1.438.385-3.319.605-5.532.605h-8.354V11.143h2.6v2.801h5.864c1.052 0 1.992.055 2.932.165.886.11 1.715.275 2.49.44.719.164 1.383.384 1.881.604.498.22.94.494 1.217.714v5.383h-.055zm-7.911-1.703c1.106 0 1.991-.055 2.766-.11.774-.055 1.438-.165 1.936-.22.498-.11.885-.22 1.162-.33.276-.11.442-.219.553-.329-.111-.055-.277-.165-.553-.274a7.937 7.937 0 00-1.162-.33c-.498-.11-1.162-.165-1.936-.22a38.61 38.61 0 00-2.766-.11h-6.473v1.868h6.473v.055zm17.593-.22l3.374-8.184H192v12.139h-2.545v-8.623l-3.54 8.623h-4.758l-3.596-8.514v8.514h-4.481V11.143h5.532l3.486 8.184zM55.71 56.716v-5.105h1.34v1.87h2.043v-1.87h1.34v5.105h-1.34v-2.013H57.05v2.013h-1.34zm8.951 0v-.503c-.352.431-.916.647-1.55.647-.775 0-1.762-.575-1.762-1.654 0-1.15.916-1.654 1.762-1.654.634 0 1.268.216 1.55.648v-.648c0-.503-.423-.862-1.057-.862-.564 0-1.057.215-1.48.575l-.493-.863c.634-.575 1.41-.791 2.185-.791 1.127 0 2.184.431 2.184 1.941v3.308h-1.339v-.144zm0-1.222v-.647c-.211-.288-.634-.432-1.057-.432-.493 0-.916.288-.916.791 0 .503.423.72.916.72.423 0 .846-.145 1.057-.432zm2.184-1.294c0-1.582 1.128-2.66 2.608-2.66.986 0 1.62.43 1.973.934l-.846.79c-.211-.359-.564-.575-1.057-.575-.775 0-1.339.576-1.339 1.439 0 .862.564 1.51 1.34 1.51.422 0 .845-.216 1.056-.576l.846.791c-.352.504-.916.935-1.973.935-1.48.072-2.608-1.007-2.608-2.588zm6.483 2.516v-3.883h-1.41v-1.15h4.088v1.15h-1.41v3.883h-1.268zm3.171-2.516c0-1.439.987-2.66 2.607-2.66 1.621 0 2.608 1.221 2.608 2.66 0 1.438-.987 2.66-2.608 2.66-1.62 0-2.607-1.222-2.607-2.66zm3.876 0c0-.791-.493-1.439-1.269-1.439-.845 0-1.268.648-1.268 1.438 0 .791.423 1.51 1.268 1.51.776-.071 1.269-.719 1.269-1.51zm2.043 2.516l1.128-1.87c-.564-.143-1.128-.646-1.128-1.581 0-.863.635-1.654 1.692-1.654h3.03v5.105H85.8V54.99h-.987l-.986 1.726h-1.41zm3.453-2.876v-1.079h-1.48c-.352 0-.563.216-.563.504 0 .36.211.575.564.575h1.48zm9.726-2.157v3.883h.635v2.444h-1.34v-1.294H88.41v-5.105h1.34v3.955h1.62v-3.883h1.339v3.883h1.62v-3.883h1.27zm4.51 5.033v-.503c-.352.431-.916.647-1.55.647-.775 0-1.762-.575-1.762-1.654 0-1.15.916-1.654 1.762-1.654.634 0 1.268.216 1.55.648v-.648c0-.503-.422-.862-1.057-.862-.563 0-1.057.215-1.48.575l-.493-.863c.634-.575 1.41-.791 2.185-.791 1.127 0 2.184.431 2.184 1.941v3.308h-1.339v-.144zm0-1.222v-.647c-.211-.288-.634-.432-1.057-.432-.493 0-.916.288-.916.791 0 .503.423.72.916.72.423 0 .846-.145 1.057-.432zm2.255 1.222l1.128-1.87c-.564-.143-1.128-.646-1.128-1.581 0-.863.634-1.654 1.691-1.654h3.031v5.105h-1.339V54.99h-.987l-.986 1.726h-1.41zm3.524-2.876v-1.079h-1.48c-.353 0-.564.216-.564.504 0 .36.211.575.564.575h1.48zm4.862.144c0-2.445.846-3.595 2.607-3.811.846-.144 1.128-.288 1.128-.431h1.339c0 1.006-1.269 1.294-2.044 1.366-1.198.144-1.691.647-1.762 1.294.423-.503.987-.863 1.692-.863 1.409 0 2.325 1.222 2.325 2.66 0 1.439-.986 2.661-2.607 2.661-1.691 0-2.678-1.294-2.678-2.876zm3.876.144c0-.791-.494-1.438-1.269-1.438-.845 0-1.268.647-1.268 1.438 0 .79.423 1.51 1.268 1.51.846 0 1.269-.648 1.269-1.51zm2.325 2.588v-5.105h1.339v3.092l2.043-3.092h1.339v5.105h-1.339v-3.164l-2.114 3.164h-1.268zm5.638-2.732c0-2.445.846-3.595 2.607-3.811.846-.144 1.128-.288 1.128-.431h1.339c0 1.006-1.268 1.294-2.044 1.366-1.198.144-1.691.647-1.761 1.294.422-.503.986-.863 1.691-.863 1.409 0 2.325 1.222 2.325 2.66 0 1.439-.986 2.661-2.607 2.661-1.691 0-2.678-1.294-2.678-2.876zm3.946.144c0-.791-.493-1.438-1.268-1.438s-1.268.647-1.268 1.438c0 .79.422 1.51 1.268 1.51.846 0 1.268-.648 1.268-1.51zm1.762 1.653c.422 0 .634-.431.775-1.653l.352-2.445h4.017v5.105H132.1v-3.883h-1.55l-.141 1.438c-.212 1.726-.846 2.589-2.114 2.589v-1.15zm6.341.935v-5.105h1.339v3.092l2.044-3.092h1.339v5.105h-1.339v-3.164l-2.114 3.164h-1.269zm5.638-2.516c0-1.439.986-2.66 2.607-2.66 1.621 0 2.608 1.221 2.608 2.66 0 1.438-.987 2.66-2.608 2.66s-2.607-1.222-2.607-2.66zm3.876 0c0-.791-.494-1.439-1.269-1.439-.846 0-1.268.648-1.268 1.438 0 .791.422 1.51 1.268 1.51.775-.071 1.269-.719 1.269-1.51zm3.172 2.516v-3.883h-1.41v-1.15h4.087v1.15h-1.409v3.883h-1.268zm3.17-2.516c0-1.439 1.057-2.66 2.607-2.66 1.48 0 2.467 1.15 2.467 2.803v.288h-3.665c.071.647.564 1.15 1.41 1.15.422 0 .986-.215 1.339-.503l.563.863c-.493.431-1.268.719-2.043.719-1.551 0-2.678-1.079-2.678-2.66zm2.537-1.582c-.846 0-1.198.647-1.198 1.15h2.466c-.07-.575-.423-1.15-1.268-1.15zm6.625 4.098l-1.339-1.941-.564.647v1.294h-1.339v-5.105h1.339v2.229l1.903-2.229h1.62l-1.973 2.3 2.044 2.805h-1.691zm5.145 0v-.503c-.353.431-.916.647-1.551.647-.775 0-1.761-.575-1.761-1.654 0-1.15.916-1.654 1.761-1.654.635 0 1.269.216 1.551.648v-.648c0-.503-.423-.862-1.057-.862-.564 0-1.057.215-1.48.575l-.494-.863c.635-.575 1.41-.791 2.185-.791 1.128 0 2.185.431 2.185 1.941v3.308h-1.339v-.144zm0-1.222v-.647c-.212-.288-.635-.432-1.057-.432-.494 0-.916.288-.916.791 0 .503.422.72.916.72.422 0 .845-.145 1.057-.432zM59.093 67.573v-3.882H57.05v3.882h-1.34v-5.105h4.652v5.105h-1.269zm2.257-2.588c0-1.438.986-2.66 2.606-2.66 1.621 0 2.608 1.222 2.608 2.66 0 1.438-.987 2.66-2.607 2.66-1.621.073-2.608-1.15-2.608-2.66zm3.875 0c0-.79-.493-1.438-1.268-1.438-.846 0-1.269.647-1.269 1.438 0 .791.423 1.51 1.268 1.51.846 0 1.269-.647 1.269-1.51zm1.69 1.869l.563-.862c.494.431 1.128.575 1.692.575.634 0 1.057-.216 1.057-.575 0-.36-.423-.576-1.128-.576h-.986V64.41h.986c.705 0 .987-.216.987-.576 0-.287-.423-.503-.987-.503-.634 0-1.127.216-1.55.575l-.634-.79c.493-.504 1.198-.863 2.114-.863 1.55 0 2.396.503 2.396 1.366 0 .647-.635 1.078-1.269 1.222.634.072 1.41.431 1.41 1.223 0 .862-.916 1.51-2.396 1.51-.916.143-1.762-.216-2.255-.72zm5.709.719v-5.105h1.34v3.092l2.043-3.092h1.339v5.105h-1.34V64.41l-2.113 3.163h-1.269zm6.764.001V63.69h-1.41v-1.15h4.088v1.15h-1.41v3.883h-1.268zm3.453-.001v-5.105h1.339v3.092l2.044-3.092h1.338v5.105h-1.338V64.41l-2.115 3.163h-1.268zm5.919 0v-5.105h3.172c.986 0 1.55.647 1.55 1.295 0 .575-.352 1.006-.846 1.15.564.144.917.647.917 1.222 0 .791-.564 1.367-1.55 1.367H88.76v.072zm3.313-3.595c0-.287-.141-.431-.493-.431h-1.55v.863h1.55c.352 0 .493-.144.493-.432zm.07 2.014a.487.487 0 00-.493-.504h-1.62v.935h1.62c.352.072.493-.144.493-.431zm2.114-1.007c0-1.438.986-2.66 2.607-2.66 1.621 0 2.608 1.222 2.608 2.66 0 1.438-.987 2.66-2.608 2.66-1.62.073-2.607-1.15-2.607-2.66zm3.876 0c0-.79-.493-1.438-1.269-1.438-.845 0-1.268.647-1.268 1.438 0 .791.423 1.51 1.268 1.51.846 0 1.269-.647 1.269-1.51zm2.325 2.588v-5.105h3.172c.986 0 1.55.647 1.55 1.295 0 .575-.352 1.006-.846 1.15.564.144.916.647.916 1.222 0 .791-.563 1.367-1.55 1.367h-3.242v.072zm3.313-3.595c0-.287-.141-.431-.494-.431h-1.55v.863h1.55c.353 0 .494-.144.494-.432zm.141 2.014a.487.487 0 00-.494-.504h-1.621v.935h1.621c.282.072.494-.144.494-.431z"/><defs><linearGradient id="paint0_linear_2008_4227" x1="60.084" x2="140.354" y1="53.666" y2="24.819" gradientUnits="userSpaceOnUse"><stop offset=".051" stop-color="#39B54A"/><stop offset=".331" stop-color="#FDB913"/><stop offset=".636" stop-color="#EF5CA1"/><stop offset=".957" stop-color="#1C75BC"/></linearGradient><linearGradient id="paint1_linear_2008_4227" x1="-.867" x2="50.001" y1="27.422" y2="8.928" gradientUnits="userSpaceOnUse"><stop offset=".051" stop-color="#39B54A"/><stop offset=".331" stop-color="#FDB913"/><stop offset=".636" stop-color="#EF5CA1"/><stop offset=".957" stop-color="#1C75BC"/></linearGradient></defs></svg>