<svg xmlns="http://www.w3.org/2000/svg" xmlns:xlink="http://www.w3.org/1999/xlink" width="481" height="47" fill="none" viewBox="0 0 481 47"><linearGradient id="a"><stop offset=".051" stop-color="#39b54a"/><stop offset=".331" stop-color="#fdb913"/><stop offset=".636" stop-color="#ef5ca1"/><stop offset=".957" stop-color="#1c75bc"/></linearGradient><linearGradient id="b" x1="257.134" x2="359.608" y1="42.804" y2="5.776" gradientUnits="userSpaceOnUse" xlink:href="#a"/><linearGradient id="c" x1="-1.108" x2="63.828" y1="34.862" y2="11.127" gradientUnits="userSpaceOnUse" xlink:href="#a"/><path fill="url(#b)" fill-rule="evenodd" d="M336.6 22.767l8.086-7.447h3.333v15.674h-3.333v-7.59l-8.086 7.519h-3.333V15.32h3.333zm9.22-10.213c-.425.283-.993.567-1.844.85-.78.284-1.914.426-3.404.426-1.489 0-2.624-.142-3.404-.425-.78-.284-1.419-.568-1.844-.851V8.369c.78.568 1.631.922 2.553 1.135s1.773.355 2.624.355 1.773-.142 2.766-.355 1.773-.567 2.412-1.135v4.185zm-92.199 4.326c-.71.355-1.277.71-1.632 1.064v10.425c.426.355.922.71 1.632 1.064.638.355 1.489.639 2.411.922.922.284 1.986.497 3.191.639 1.206.212 2.483.283 3.83.283 1.419 0 2.695-.07 3.901-.283 1.135-.142 2.199-.355 3.121-.639.922-.212 1.702-.567 2.411-.922.638-.354 1.206-.709 1.56-1.064V17.944c-.354-.355-.922-.71-1.56-1.064-.709-.355-1.489-.638-2.411-.922a79.076 79.076 0 00-3.121-.638c-1.135-.142-2.482-.213-3.901-.213-1.418 0-2.695.07-3.83.213-1.205.141-2.269.354-3.191.638s-1.773.567-2.411.922zm15.886 7.66c-.78.283-1.702.496-2.766.709s-2.34.284-3.688.284c-1.418 0-2.624-.071-3.688-.284s-1.986-.426-2.695-.71c-.709-.212-1.347-.496-1.773-.78-.114-.076-.223-.146-.324-.212-.276-.18-.494-.322-.598-.426.088-.058.189-.13.306-.212.166-.118.367-.26.616-.426.331-.221.792-.399 1.314-.6h.001c.148-.058.301-.117.458-.18.709-.284 1.631-.497 2.695-.71 1.064-.212 2.27-.283 3.688-.283 1.419 0 2.624.07 3.688.284 1.064.212 1.986.425 2.766.709.157.063.311.122.459.18.523.201.983.379 1.314.6l.324.213c.277.18.494.321.598.425-.088.059-.188.13-.306.213-.166.118-.367.26-.616.425-.425.213-1.064.497-1.773.78zm16.312-4.61h-7.517v-4.61h-3.334v15.603h3.334v-5.32h7.517v5.32h3.334V15.249h-3.334v4.68zm20.71 11.064h-3.333v-9.93h-4.61v4.681c0 .851-.071 1.631-.142 2.27-.142.638-.355 1.206-.709 1.631-.355.426-.922.78-1.632.993-.709.213-1.631.355-2.837.355h-3.262V27.66h.567c.922 0 1.49-.213 1.844-.709.355-.497.497-1.277.497-2.482v-9.15H306.6v15.675zm2.482-14.114c-.709.355-1.276.71-1.631 1.064v10.638c.426.355.922.71 1.631 1.064.639.355 1.49.639 2.412.922.922.284 1.986.497 3.191.638 1.206.213 2.483.284 3.83.284 2.624 0 4.894-.284 6.667-.78 1.773-.567 3.12-1.135 3.972-1.844v2.27h3.333V15.46h-3.333v2.27c-.852-.71-2.199-1.348-3.972-1.844s-4.043-.78-6.667-.78c-1.418 0-2.695.07-3.83.213-1.205.141-2.269.354-3.191.638s-1.773.567-2.412.922zm15.887 7.66c-.78.283-1.702.496-2.766.709s-2.34.284-3.688.284c-1.418 0-2.624-.071-3.688-.284s-1.986-.426-2.695-.71c-.709-.212-1.347-.496-1.773-.78l-.324-.212c-.276-.18-.494-.322-.598-.426.088-.058.188-.13.306-.212.166-.118.367-.26.616-.426.331-.221.792-.399 1.314-.6.149-.058.302-.117.459-.18.709-.284 1.631-.497 2.695-.71 1.064-.212 2.27-.283 3.688-.283 1.419 0 2.624.07 3.688.284 1.064.212 1.986.425 2.766.709.157.063.31.122.459.18.522.201.983.379 1.314.6l.324.213c.277.18.494.321.598.425-.088.059-.188.13-.306.213-.166.117-.367.26-.616.425-.425.213-1.064.497-1.773.78zm34.823-4.61h-7.447v-4.61h-3.333v15.603h3.262v-5.32h7.518v5.32h3.334V15.249h-3.334v4.68z" clip-rule="evenodd"/><path fill="url(#c)" d="M58.228 5.248c-1.915-.993-4.256-1.844-6.88-2.624-2.624-.71-5.603-1.347-8.936-1.915A89.129 89.129 0 0031.277 0c-3.9 0-7.518.213-10.78.71-3.405.496-6.383 1.134-9.078 1.914a43.883 43.883 0 00-6.88 2.624C2.624 6.241 1.064 7.305 0 8.298v29.646c1.064.993 2.624 2.057 4.54 2.979 1.914.992 4.184 1.914 6.879 2.624 2.695.78 5.744 1.418 9.078 1.915 3.333.496 6.95.78 10.78.78 4.043 0 7.802-.284 11.135-.78 3.333-.426 6.312-1.064 8.936-1.915a36.688 36.688 0 006.88-2.624c1.915-.993 3.404-1.986 4.468-2.98V8.299c-1.064-.993-2.553-2.057-4.468-3.05zM49.22 6.596c0-.497.425-.78.922-.638l.85.212c.497.142.923.639.923 1.135v2.057c0 .496-.426.78-.922.638-.284-.07-.568-.142-.851-.213-.497-.141-.922-.638-.922-1.134zm-7.731-1.49c0-.496.425-.85.922-.78.284.071.567.071.922.142.496.071.922.568.922 1.064v2.057c0 .496-.426.85-.922.78-.284-.071-.567-.071-.922-.142-.496-.07-.922-.567-.922-1.064zm-7.802-.709c0-.496.426-.922.922-.85.284 0 .639 0 .922.07.497 0 .922.497.922.993v2.057c0 .496-.425.85-.922.85-.283 0-.638 0-.922-.07a.939.939 0 01-.922-.922zm-7.872.142c0-.496.425-.922.922-.993h.922c.496 0 .922.355.922.851v2.057a.939.939 0 01-.922.922c-.284 0-.638 0-.922.07-.497 0-.922-.354-.922-.85zm-7.801.993c0-.496.425-.993.921-1.064.284-.07.568-.07.922-.142.497-.07.922.284.922.78v2.057c0 .497-.425.993-.922 1.064-.283.071-.567.071-.922.142-.496.07-.921-.213-.921-.78zm-7.66 1.844c0-.496.425-.993.922-1.135.284-.07.567-.142.85-.213.497-.141.923.142.923.639v2.057c0 .496-.426.992-.922 1.134l-.851.213c-.497.142-.922-.142-.922-.638zM2.837 10c0-.496.355-1.064.851-1.276.284-.142.567-.213.851-.355.497-.213.851.07.851.567v2.057c0 .496-.425 1.064-.85 1.206-.285.142-.568.213-.852.354-.426.284-.851 0-.851-.496zM5.46 36.454c0 .497-.425.78-.851.568-.284-.142-.567-.213-.851-.355-.497-.142-.922-.709-.922-1.206v-2.056c0-.497.355-.71.851-.568.284.142.567.213.851.355.497.213.851.71.851 1.206.071.709.071 1.347.071 2.056zm7.589 2.34c0 .497-.426.781-.922.64l-.851-.214c-.497-.141-.922-.638-.922-1.134v-2.057c0-.497.425-.78.922-.638l.85.212c.497.142.923.639.923 1.135v2.057zm7.73 1.561c0 .497-.425.851-.922.78-.283-.07-.567-.07-.922-.142-.496-.07-.921-.567-.921-1.063v-2.057c0-.497.425-.851.921-.78.284.07.568.07.922.142.497.07.922.567.922 1.063zm7.802.639c0 .496-.426.922-.922.85-.284 0-.638 0-.922-.07-.497 0-.922-.497-.922-.993v-2.057c0-.496.425-.851.922-.851.284 0 .638 0 .922.07a.94.94 0 01.922.923v2.127zm7.872-.142c0 .496-.425.922-.922.993-.283 0-.638 0-.922.07-.496 0-.922-.354-.922-.85v-2.057c0-.497.426-.922.922-.922.284 0 .639 0 .922-.071.497 0 .922.354.922.85zm7.802-.922c0 .496-.426.993-.922 1.063-.284.071-.567.071-.922.142-.496.071-.922-.283-.922-.78v-2.057c0-.496.425-.992.922-1.063.284-.071.567-.071.922-.142.496-.071.922.212.922.78zm7.66-1.844c0 .496-.426.993-.922 1.134l-.851.213c-.497.142-.922-.142-.922-.638v-2.057c0-.496.425-.993.922-1.135l.85-.212c.497-.142.923.141.923.638zm-2.27-10.922a61.9 61.9 0 01-7.801 1.985c-3.05.568-6.525.851-10.568.851-3.972 0-7.518-.283-10.568-.85-3.05-.568-5.602-1.206-7.73-1.986-2.128-.71-3.83-1.49-5.036-2.34-1.276-.781-2.127-1.42-2.553-1.774.426-.426 1.348-.993 2.553-1.773 1.277-.71 2.98-1.49 5.036-2.199a57.582 57.582 0 017.73-1.985c3.05-.497 6.525-.78 10.568-.78 3.972 0 7.518.283 10.568.78 3.05.567 5.602 1.205 7.801 1.985 2.128.71 3.83 1.49 5.036 2.199 1.276.78 2.127 1.418 2.553 1.773-.426.425-1.348.993-2.553 1.773-1.206.851-2.908 1.631-5.036 2.34zm9.788 8.297c0 .497-.355 1.064-.852 1.277-.283.142-.567.213-.85.355-.497.212-.852-.071-.852-.568V34.47c0-.497.426-1.064.851-1.206.284-.142.568-.213.851-.355.497-.212.852.071.852.568v1.986zm0-23.404c0 .496-.355.71-.852.567-.283-.142-.567-.213-.85-.354-.497-.213-.852-.71-.852-1.206V9.007c0-.496.426-.78.851-.567.284.142.568.213.851.354.497.213.852.78.852 1.277z"/><path fill="#fff" d="M73.547 25.249c.993 0 1.773-.284 2.199-.922.425-.639.638-1.632.638-3.05v-6.029h14.255v9.93h3.05v9.645h-3.05v-3.9H75.675v3.9h-3.05V25.25h.922zm13.83-4.256h-5.248c0 .71-.071 1.348-.213 1.844-.142.497-.284.922-.426 1.206-.212.355-.354.567-.567.78s-.425.355-.638.426h7.021v-4.256zm10.568 1.773l8.085-7.517h3.333v15.673h-3.333v-7.517l-8.085 7.517H94.61V15.32h3.334v7.447zm12.34-4.823c.355-.354.922-.709 1.632-1.064.638-.354 1.489-.638 2.411-.922.922-.283 1.986-.496 3.191-.638a31.124 31.124 0 013.83-.213c2.624 0 4.894.284 6.667.78 1.773.497 3.121 1.135 3.972 1.845v-2.27h3.333v15.674h-3.404v-2.27c-.851.71-2.199 1.277-3.972 1.845-1.773.496-4.042.78-6.667.78-1.347 0-2.624-.071-3.829-.284-1.206-.142-2.27-.355-3.192-.638-.922-.284-1.773-.568-2.411-.922a8.122 8.122 0 01-1.632-1.064V17.943zm14.681 7.305c1.064-.212 1.986-.425 2.766-.709.71-.284 1.348-.567 1.773-.78.426-.284.71-.496.922-.638-.141-.142-.496-.355-.922-.639-.425-.283-1.063-.496-1.773-.78-.78-.283-1.702-.496-2.766-.709-1.063-.213-2.269-.284-3.688-.284-1.418 0-2.624.071-3.688.284-1.063.213-1.985.426-2.695.71-.709.283-1.347.496-1.773.78-.425.283-.709.496-.922.638.142.142.497.354.922.638.426.284 1.064.567 1.773.78.71.284 1.632.497 2.695.71 1.064.212 2.27.283 3.688.283 1.419 0 2.625-.07 3.688-.284zm11.206-7.304c.425-.355.993-.71 1.773-1.064.78-.355 1.702-.639 2.766-.851 1.064-.284 2.269-.497 3.617-.639 1.348-.141 2.766-.283 4.255-.283v-6.95h3.334v6.95c3.191.07 5.886.354 7.943.922 2.128.567 3.617 1.205 4.468 1.986v10.354c-.851.78-2.34 1.419-4.468 1.986s-4.752.851-7.943.922v7.589h-3.334v-7.589c-1.56-.07-2.978-.142-4.255-.284-1.348-.141-2.553-.354-3.617-.638s-1.986-.567-2.766-.922-1.348-.71-1.773-1.064zm2.908 5.744c.496.284 1.205.497 2.056.78.852.284 1.915.497 3.121.71 1.206.212 2.624.354 4.255.425v-4.752a56.994 56.994 0 00-4.255.355 47.385 47.385 0 00-3.121.638 13.45 13.45 0 00-2.056.71c-.497.212-.851.425-.993.638.142.07.496.213.993.496zm12.766 1.844c1.631-.07 3.05-.212 4.255-.425 1.206-.213 2.27-.426 3.121-.71.851-.212 1.56-.496 2.057-.78.496-.212.851-.425.993-.567-.213-.142-.497-.355-.993-.638a13.516 13.516 0 00-2.057-.71c-.851-.212-1.915-.496-3.121-.638-1.276-.212-2.695-.283-4.255-.354zm16.596-2.766l8.085-7.517h3.334v15.673h-3.334v-7.517l-8.085 7.517h-3.333V15.32h3.333v7.447zm28.866 8.227h-3.334v-9.929h-4.61v4.681c0 .851-.071 1.631-.141 2.27-.142.638-.355 1.205-.71 1.63-.354.426-.922.78-1.631.994-.709.213-1.631.354-2.837.354h-3.262V27.66h.567c.922 0 1.489-.213 1.844-.71.355-.496.497-1.276.497-2.482V15.32h13.688v15.674h-.071zm22.695-2.623c-.78.708-2.057 1.347-3.901 1.843-1.844.497-4.255.78-7.092.78h-10.709V15.32h3.333v3.617h7.518c1.348 0 2.553.071 3.759.213a36.86 36.86 0 013.191.568 13.78 13.78 0 012.412.78 7.525 7.525 0 011.56.922v6.95zm-10.142-2.2c1.419 0 2.553-.07 3.546-.141s1.844-.213 2.483-.284c.638-.142 1.134-.284 1.489-.425.355-.142.567-.284.709-.426-.142-.071-.354-.213-.709-.355s-.851-.283-1.489-.425c-.639-.142-1.49-.213-2.483-.284a49.116 49.116 0 00-3.546-.142h-8.298V26.1h8.298zm22.553-.283l4.327-10.568h8.369v15.674h-3.263V19.858l-4.539 11.135h-6.099L226.599 20v10.993h-5.745V15.32h7.092l4.468 10.568zm137.45-5.603v-5.036h1.347v1.844h2.057v-1.844h1.348v5.036h-1.348v-1.986h-2.057v1.986zm9.007 0v-.497c-.355.426-.922.638-1.56.638-.78 0-1.773-.567-1.773-1.63 0-1.136.922-1.632 1.773-1.632.638 0 1.276.213 1.56.638v-.638c0-.497-.426-.851-1.064-.851-.567 0-1.064.213-1.489.567l-.497-.85c.639-.568 1.419-.781 2.199-.781 1.135 0 2.199.426 2.199 1.915v3.262h-1.348zm0-1.206v-.638c-.213-.284-.638-.426-1.064-.426-.496 0-.922.284-.922.78 0 .497.426.71.922.71.426 0 .851-.142 1.064-.426zm2.198-1.277c0-1.56 1.135-2.624 2.624-2.624.993 0 1.632.426 1.986.922l-.851.78c-.213-.354-.567-.567-1.064-.567-.78 0-1.347.567-1.347 1.418 0 .852.567 1.49 1.347 1.49.426 0 .851-.213 1.064-.567l.851.78c-.354.496-.922.922-1.986.922-1.489.07-2.624-.993-2.624-2.554zm6.525 2.483v-3.83h-1.418V15.32h4.113v1.135h-1.418v3.83h-1.277zm3.192-2.483c0-1.418.993-2.624 2.624-2.624 1.632 0 2.624 1.206 2.624 2.624 0 1.419-.992 2.625-2.624 2.625-1.631 0-2.624-1.206-2.624-2.625zm3.901 0c0-.78-.497-1.418-1.277-1.418-.851 0-1.276.638-1.276 1.418s.425 1.49 1.276 1.49c.78-.071 1.277-.71 1.277-1.49zm2.057 2.483l1.134-1.844c-.567-.142-1.134-.639-1.134-1.56 0-.852.638-1.632 1.702-1.632h3.049v5.036h-1.347V18.58h-.993l-.993 1.703h-1.418zm3.475-2.837v-1.064h-1.49c-.354 0-.567.213-.567.496 0 .355.213.568.567.568zm9.787-2.128v3.83h.638v2.411h-1.347v-1.276h-6.525v-5.036h1.347v3.9h1.632V15.32h1.347v3.83h1.631v-3.83h1.277zm4.539 4.965v-.497c-.354.426-.922.638-1.56.638-.78 0-1.773-.567-1.773-1.63 0-1.136.922-1.632 1.773-1.632.638 0 1.277.213 1.56.638v-.638c0-.497-.425-.851-1.064-.851-.567 0-1.063.213-1.489.567l-.496-.85c.638-.568 1.418-.781 2.198-.781 1.135 0 2.199.426 2.199 1.915v3.262h-1.348zm0-1.206v-.638c-.212-.284-.638-.426-1.064-.426-.496 0-.922.284-.922.78 0 .497.426.71.922.71.426 0 .852-.142 1.064-.426zm2.269 1.206l1.135-1.844c-.567-.142-1.135-.639-1.135-1.56 0-.852.639-1.632 1.703-1.632h3.049v5.036h-1.347V18.58h-.993l-.993 1.703h-1.419zm3.547-2.837v-1.064h-1.49c-.354 0-.567.213-.567.496 0 .355.213.568.567.568zm4.893.142c0-2.412.851-3.546 2.625-3.76.851-.141 1.134-.283 1.134-.425h1.348c0 .993-1.277 1.277-2.057 1.348-1.206.142-1.702.638-1.773 1.276.426-.496.993-.85 1.702-.85 1.419 0 2.341 1.205 2.341 2.623 0 1.419-.993 2.625-2.624 2.625-1.703 0-2.696-1.277-2.696-2.837zm3.901.142c0-.78-.496-1.419-1.276-1.419-.852 0-1.277.638-1.277 1.419 0 .78.425 1.489 1.277 1.489.851 0 1.276-.638 1.276-1.49zm2.341 2.553v-5.036h1.348v3.05l2.056-3.05h1.348v5.036H434.9v-3.121l-2.127 3.12h-1.277zm5.674-2.695c0-2.412.851-3.546 2.624-3.76.851-.141 1.135-.283 1.135-.425h1.347c0 .993-1.276 1.277-2.056 1.348-1.206.142-1.703.638-1.773 1.276.425-.496.992-.85 1.702-.85 1.418 0 2.34 1.205 2.34 2.623 0 1.419-.993 2.625-2.624 2.625-1.702 0-2.695-1.277-2.695-2.837zm3.972.142c0-.78-.497-1.419-1.277-1.419s-1.277.638-1.277 1.419c0 .78.426 1.489 1.277 1.489s1.277-.638 1.277-1.49zm1.773 1.631c.425 0 .638-.426.78-1.631l.354-2.412h4.043v5.036h-1.348v-3.83h-1.56l-.142 1.419c-.213 1.702-.851 2.553-2.127 2.553zm6.382.922v-5.036h1.348v3.05l2.057-3.05h1.347v5.036h-1.347v-3.121l-2.128 3.12h-1.277zm5.674-2.483c0-1.418.993-2.624 2.624-2.624 1.632 0 2.625 1.206 2.625 2.624 0 1.419-.993 2.625-2.625 2.625-1.631 0-2.624-1.206-2.624-2.625zm3.901 0c0-.78-.496-1.418-1.277-1.418-.851 0-1.276.638-1.276 1.418s.425 1.49 1.276 1.49c.781-.071 1.277-.71 1.277-1.49zm3.191 2.483v-3.83h-1.418V15.32h4.114v1.135h-1.419v3.83h-1.277zm3.192-2.483c0-1.418 1.064-2.624 2.625-2.624 1.489 0 2.482 1.135 2.482 2.766v.284h-3.688c.071.638.567 1.135 1.418 1.135.426 0 .993-.213 1.348-.497l.567.851c-.496.426-1.276.71-2.057.71-1.56 0-2.695-1.064-2.695-2.625zm2.554-1.56c-.851 0-1.206.638-1.206 1.135h2.482c-.071-.568-.425-1.135-1.276-1.135zm6.666 4.043l-1.347-1.915-.568.638v1.277h-1.347v-5.036h1.347v2.199l1.915-2.199h1.632l-1.986 2.27 2.057 2.766zm5.178 0v-.497c-.355.426-.922.638-1.561.638-.78 0-1.773-.567-1.773-1.63 0-1.136.922-1.632 1.773-1.632.639 0 1.277.213 1.561.638v-.638c0-.497-.426-.851-1.064-.851-.568 0-1.064.213-1.489.567l-.497-.85c.638-.568 1.418-.781 2.199-.781 1.134 0 2.198.426 2.198 1.915v3.262h-1.347zm0-1.206v-.638c-.213-.284-.639-.426-1.064-.426-.497 0-.922.284-.922.78 0 .497.425.71.922.71.425 0 .851-.142 1.064-.426zM373.268 30.993v-3.83h-2.057v3.83h-1.347v-5.035h4.681v5.035zm2.27-2.553c0-1.419.993-2.625 2.624-2.625s2.624 1.206 2.624 2.625c0 1.418-.993 2.624-2.624 2.624-1.631.07-2.624-1.135-2.624-2.624zm3.9 0c0-.78-.496-1.419-1.276-1.419-.851 0-1.277.638-1.277 1.419 0 .78.426 1.489 1.277 1.489s1.276-.638 1.276-1.49zm1.703 1.844l.567-.85c.496.425 1.135.566 1.702.566.638 0 1.064-.212 1.064-.567s-.426-.567-1.135-.567h-.993v-.993h.993c.709 0 .993-.213.993-.568 0-.283-.425-.496-.993-.496-.638 0-1.135.213-1.56.567l-.638-.78c.496-.496 1.205-.85 2.127-.85 1.561 0 2.412.496 2.412 1.347 0 .638-.639 1.064-1.277 1.205.638.071 1.419.426 1.419 1.206 0 .851-.922 1.49-2.412 1.49-.922.141-1.773-.213-2.269-.71zm5.744.709v-5.035h1.348v3.05l2.057-3.05h1.347v5.035h-1.347v-3.12l-2.128 3.12zm6.809 0v-3.83h-1.419v-1.135h4.114v1.135h-1.418v3.83zm3.475 0v-5.035h1.348v3.05l2.056-3.05h1.348v5.035h-1.348v-3.12l-2.127 3.12zm5.957 0v-5.035h3.192c.993 0 1.56.638 1.56 1.276 0 .567-.354.993-.851 1.135.568.142.922.638.922 1.206 0 .78-.567 1.347-1.56 1.347h-3.263zm3.334-3.546c0-.284-.142-.426-.497-.426h-1.56v.851h1.56c.355 0 .497-.141.497-.425zm.071 1.986a.485.485 0 00-.497-.497h-1.631v.922h1.631c.355.071.497-.142.497-.425zm2.128-.993c0-1.419.993-2.625 2.624-2.625s2.624 1.206 2.624 2.625c0 1.418-.993 2.624-2.624 2.624-1.631.07-2.624-1.135-2.624-2.624zm3.9 0c0-.78-.496-1.419-1.276-1.419-.851 0-1.277.638-1.277 1.419 0 .78.426 1.489 1.277 1.489s1.276-.638 1.276-1.49zm2.341 2.553v-5.035h3.191c.993 0 1.561.638 1.561 1.276 0 .567-.355.993-.851 1.135.567.142.922.638.922 1.206 0 .78-.568 1.347-1.561 1.347H414.9zm3.333-3.546c0-.284-.142-.426-.496-.426h-1.56v.851h1.56c.354 0 .496-.141.496-.425zm.142 1.986a.485.485 0 00-.496-.497h-1.632v.922h1.632c.283.071.496-.142.496-.425z"/></svg>