<svg xmlns="http://www.w3.org/2000/svg" width="24" height="24" fill="none" viewBox="0 0 24 24"><path fill="#fff" fill-rule="evenodd" d="M1.7 1.7C0 3.35 0 6.1 0 11.5v1c0 5.4 0 8.15 1.7 9.8C3.35 24 6.1 24 11.5 24h1c5.4 0 8.15 0 9.8-1.7 1.7-1.65 1.7-4.4 1.7-9.8v-1c0-5.4 0-8.15-1.7-9.8C20.65 0 17.9 0 12.5 0h-1C6.1 0 3.35 0 1.7 1.7zm3.05 5.8H6.5c.45 0 .6.2.8.7.85 2.5 2.3 4.65 2.9 4.65.2 0 .3-.1.3-.65V9.6c-.05-.75-.3-1.05-.5-1.3-.1-.15-.2-.25-.2-.4 0-.2.15-.4.45-.4H13c.35 0 .5.2.5.65v3.45c0 .35.15.5.25.5.2 0 .4-.15.8-.55 1.25-1.4 2.15-3.6 2.15-3.6.1-.25.3-.5.75-.5h1.75c.55 0 .65.25.55.65-.2 1-2.35 4-2.35 4-.2.3-.25.45 0 .8.1.15.3.3.5.55.25.2.5.5.7.7.75.85 1.3 1.55 1.5 2.05.15.5-.1.75-.6.75h-1.75c-.45 0-.7-.25-1.2-.85-.2-.25-.5-.55-.85-.9-1.05-1-1.5-1.15-1.75-1.15-.35 0-.45.1-.45.6v1.55c0 .45-.15.7-1.25.7-1.85 0-3.9-1.15-5.35-3.2C4.75 10.75 4.15 8.45 4.15 8c0-.25.1-.5.6-.5z" clip-rule="evenodd"/></svg>