<svg xmlns="http://www.w3.org/2000/svg" xmlns:xlink="http://www.w3.org/1999/xlink" width="485" height="399" viewBox="0 0 485 399"><svg xmlns="http://www.w3.org/2000/svg" width="32" height="32" x="453" y="207" fill="none" viewBox="-2 -2 32 32"><path fill="#000" d="M6 26l16-9.23v-5.54L6 2v5.538l11.051 6.301v.322L6 20.46V26z"/></svg><svg xmlns="http://www.w3.org/2000/svg" width="32" height="32" x="337" y="265" fill="none" viewBox="-2 -2 32 32"><path fill="#3A85FF" d="M6 26l16-9.23v-5.54L6 2v5.538l11.051 6.301v.322L6 20.46V26z"/></svg><svg xmlns="http://www.w3.org/2000/svg" width="32" height="32" x="369" y="265" fill="none" viewBox="-2 -2 32 32"><path fill="#595959" d="M6 26l16-9.23v-5.54L6 2v5.538l11.051 6.301v.322L6 20.46V26z"/></svg><svg xmlns="http://www.w3.org/2000/svg" width="32" height="32" x="401" y="265" fill="none" viewBox="-2 -2 32 32"><path fill="#834CBB" d="M6 26l16-9.23v-5.54L6 2v5.538l11.051 6.301v.322L6 20.46V26z"/></svg><svg xmlns="http://www.w3.org/2000/svg" width="32" height="32" x="433" y="265" fill="none" viewBox="-2 -2 32 32"><path fill="#EF5CA1" d="M6 26l16-9.23v-5.54L6 2v5.538l11.051 6.301v.322L6 20.46V26z"/></svg><svg xmlns="http://www.w3.org/2000/svg" width="32" height="32" y="315" fill="none" viewBox="-2 -2 32 32"><path fill="#fff" d="M6 26l16-9.23v-5.54L6 2v5.538l11.051 6.301v.322L6 20.46V26z"/></svg><svg xmlns="http://www.w3.org/2000/svg" width="32" height="32" x="32" y="315" fill="none" viewBox="-2 -2 32 32"><path fill="#FDB913" d="M6 26l16-9.23v-5.54L6 2v5.538l11.051 6.301v.322L6 20.46V26z"/></svg><svg xmlns="http://www.w3.org/2000/svg" width="28" height="37" x="425" y="207" fill="none" viewBox="-2 -2 28 37"><path fill="#000" d="M0 32.292l23.22-12.42V12.42L0 0v7.452l16.038 8.478v.432L0 24.84v7.452z"/></svg><svg xmlns="http://www.w3.org/2000/svg" width="37" height="50" x="448" y="123" fill="none" viewBox="-2 -2 37 50"><path fill="#000" d="M0 46l33-17.692V17.692L0 0v10.615l22.793 12.077v.616L0 35.385V46z"/></svg><svg xmlns="http://www.w3.org/2000/svg" width="26" height="26" x="56" y="371" fill="none" viewBox="-2 -2 26 26"><path fill="#000" fill-rule="evenodd" d="M11 22c6.075 0 11-4.925 11-11S17.075 0 11 0 0 4.925 0 11s4.925 11 11 11zm5-9.615L7 17v-2.77l6.216-3.15v-.16L7 7.77V5l9 4.615v2.77z" clip-rule="evenodd"/></svg><svg xmlns="http://www.w3.org/2000/svg" width="26" height="26" x="82" y="371" fill="none" viewBox="-2 -2 26 26"><path fill="#fff" fill-rule="evenodd" d="M11 22c6.075 0 11-4.925 11-11S17.075 0 11 0 0 4.925 0 11s4.925 11 11 11zm5-9.615L7 17v-2.77l6.216-3.15v-.16L7 7.77V5l9 4.615v2.77z" clip-rule="evenodd"/></svg><svg xmlns="http://www.w3.org/2000/svg" width="37" height="50" y="265" fill="none" viewBox="-2 -2 37 50"><path fill="#FFF" d="M0 46l33-17.692V17.692L0 0v10.615l22.793 12.077v.616L0 35.385V46z"/></svg><svg xmlns="http://www.w3.org/2000/svg" width="26" height="26" x="108" y="371" viewBox="-2 -2 26 26"><path fill="#7E868C" d="M10.048 16.426l3.487-3.669c1.328-1.396 1.328-3.65 0-5.045a3.326 3.326 0 00-4.866 0L3.496 13.26c-1.6 1.685-1.6 4.409.003 6.095a4.01 4.01 0 005.868 0l8.536-9.16c1.86-1.956 1.86-5.124-.003-7.083-1.875-1.974-4.93-1.974-6.806 0l-6.825 7.18.725.69L11.82 3.8c1.482-1.56 3.875-1.56 5.356 0 1.496 1.573 1.496 4.135 0 5.709l-8.536 9.16c-1.22 1.283-3.192 1.283-4.415-.004-1.236-1.3-1.236-3.419 0-4.72l5.173-5.547a2.325 2.325 0 013.413.003c.96 1.01.96 2.657 0 3.667l-3.487 3.669.725.689z"/></svg><svg xmlns="http://www.w3.org/2000/svg" width="36" height="36" x="301" y="265" fill="none" viewBox="-2 -2 36 36"><path fill="#000" d="M25.333 8.546l-1.88-1.88L16 14.12 8.546 6.667l-1.88 1.88L14.12 16l-7.453 7.453 1.88 1.88L16 17.88l7.453 7.453 1.88-1.88L17.88 16l7.453-7.454z"/></svg><svg xmlns="http://www.w3.org/2000/svg" width="44" height="44" x="37" y="265" fill="none" viewBox="-2 -2 44 44"><path fill="#fff" d="M.201 36.971L36.971.201l2.828 2.829L3.03 39.8z"/><path fill="#fff" d="M3.03.2l36.769 36.77-2.829 2.83L.2 3.029z"/></svg><svg xmlns="http://www.w3.org/2000/svg" width="76" height="76" x="168" y="123" fill="none" viewBox="-2 -2 76 76"><rect width="70.222" height="70.222" x=".889" y=".889" fill="#EAE9E8" fill-opacity=".5" stroke="#fff" stroke-width="1.778" rx="3.111"/><path fill="#fff" fill-rule="evenodd" d="M37.711 35.249h9.224a1.025 1.025 0 100-2.05h-6.75l9.981-9.981-1.449-1.45-9.981 9.982V25a1.025 1.025 0 00-2.05 0v9.224c0 .566.459 1.025 1.025 1.025zm-3.569 1.372l-9.223.105a1.025 1.025 0 10.023 2.05l6.75-.077-9.868 10.094 1.465 1.432 9.868-10.093.077 6.749a1.025 1.025 0 102.05-.023l-.106-9.224a1.025 1.025 0 00-1.036-1.013z" clip-rule="evenodd"/></svg><svg xmlns="http://www.w3.org/2000/svg" width="84" height="84" y="123" fill="none" viewBox="-2 -2 84 84"><path fill="#000" fill-rule="evenodd" d="M4 2h72a2 2 0 012 2v72a2 2 0 01-2 2H4a2 2 0 01-2-2V4a2 2 0 012-2zM0 4a4 4 0 014-4h72a4 4 0 014 4v72a4 4 0 01-4 4H4a4 4 0 01-4-4V4zm54.426 30.627l3.1-9.628-1.957-1.958-9.628 3.1L47.9 28.1l4.716-1.544-9.03 9.03L45 36.998l8.995-8.994-1.527 4.664 1.958 1.958zM34.627 54.426L25 57.526l-1.958-1.958 3.1-9.628L28.1 47.9l-1.543 4.715 9.029-9.029L37 45l-8.994 8.995 4.663-1.526 1.958 1.958z" clip-rule="evenodd"/></svg><svg xmlns="http://www.w3.org/2000/svg" width="84" height="84" x="84" y="123" fill="none" viewBox="-2 -2 84 84"><path fill="#FFF" fill-rule="evenodd" d="M4 2h72a2 2 0 012 2v72a2 2 0 01-2 2H4a2 2 0 01-2-2V4a2 2 0 012-2zM0 4a4 4 0 014-4h72a4 4 0 014 4v72a4 4 0 01-4 4H4a4 4 0 01-4-4V4zm54.426 30.627l3.1-9.628-1.957-1.958-9.628 3.1L47.9 28.1l4.716-1.544-9.03 9.03L45 36.998l8.995-8.994-1.527 4.664 1.958 1.958zM34.627 54.426L25 57.526l-1.958-1.958 3.1-9.628L28.1 47.9l-1.543 4.715 9.029-9.029L37 45l-8.994 8.995 4.663-1.526 1.958 1.958z" clip-rule="evenodd"/></svg><svg xmlns="http://www.w3.org/2000/svg" width="56" height="40" x="271" y="51" fill="none" viewBox="-2 -2 56 40"><path fill="#fff" d="M0 0h52v4H0zm0 16h52v4H0zm0 16h52v4H0z"/></svg><svg xmlns="http://www.w3.org/2000/svg" width="26" height="26" x="134" y="371" fill="none" viewBox="-2 -2 26 26"><path fill="#000" d="M20.47 11.484l-13 7.695-.163-15.106 13.164 7.411z"/></svg><svg xmlns="http://www.w3.org/2000/svg" width="44" height="44" x="81" y="265" fill="none" viewBox="-2 -2 44 44"><path fill="#fff" d="M37.656 19.962l-25.597 15.15-.322-29.743z"/></svg><svg xmlns="http://www.w3.org/2000/svg" width="20" height="20" x="465" y="265" fill="none" viewBox="-2 -2 20 20"><path fill="#000" fill-rule="evenodd" d="M8 0a1 1 0 00-1 1v6H1a1 1 0 000 2h6v6a1 1 0 102 0V9h6a1 1 0 100-2H9V1a1 1 0 00-1-1z" clip-rule="evenodd"/></svg><svg xmlns="http://www.w3.org/2000/svg" width="30" height="23" x="64" y="315" fill="none" viewBox="-2 -2 30 23"><path fill="#fff" fill-rule="evenodd" d="M0 7l13-7v4L4 9v1l9 5v4L0 12V7zm13 0l13-7v4l-9 5v1l9 5v4l-13-7V7z" clip-rule="evenodd"/></svg><svg xmlns="http://www.w3.org/2000/svg" width="51" height="39" x="327" y="51" fill="none" viewBox="-2 -2 51 39"><path fill="#3A85FF" fill-rule="evenodd" d="M0 13.461L25.155 0v8.076l-17.374 9.19v.468l17.374 9.189V35L0 21.538v-8.077zm21.845 0L47 0v8.076l-17.375 9.19v.468L47 26.923V35L21.845 21.538v-8.077z" clip-rule="evenodd"/></svg><svg xmlns="http://www.w3.org/2000/svg" width="51" height="39" x="378" y="51" fill="none" viewBox="-2 -2 51 39"><path fill="#39B54A" fill-rule="evenodd" d="M0 13.461L25.155 0v8.076l-17.374 9.19v.468l17.374 9.189V35L0 21.538v-8.077zm21.845 0L47 0v8.076l-17.375 9.19v.468L47 26.923V35L21.845 21.538v-8.077z" clip-rule="evenodd"/></svg><svg xmlns="http://www.w3.org/2000/svg" width="51" height="39" x="429" y="51" fill="none" viewBox="-2 -2 51 39"><path fill="#834CBB" fill-rule="evenodd" d="M0 13.461L25.155 0v8.076l-17.374 9.19v.468l17.374 9.189V35L0 21.538v-8.077zm21.845 0L47 0v8.076l-17.375 9.19v.468L47 26.923V35L21.845 21.538v-8.077z" clip-rule="evenodd"/></svg><svg xmlns="http://www.w3.org/2000/svg" width="51" height="39" x="272" y="207" fill="none" viewBox="-2 -2 51 39"><path fill="#FF8214" fill-rule="evenodd" d="M0 13.461L25.155 0v8.076l-17.374 9.19v.468l17.374 9.189V35L0 21.538v-8.077zm21.845 0L47 0v8.076l-17.375 9.19v.468L47 26.923V35L21.845 21.538v-8.077z" clip-rule="evenodd"/></svg><svg xmlns="http://www.w3.org/2000/svg" width="51" height="39" x="323" y="207" fill="none" viewBox="-2 -2 51 39"><path fill="#EF5CA1" fill-rule="evenodd" d="M0 13.461L25.155 0v8.076l-17.374 9.19v.468l17.374 9.189V35L0 21.538v-8.077zm21.845 0L47 0v8.076l-17.375 9.19v.468L47 26.923V35L21.845 21.538v-8.077z" clip-rule="evenodd"/></svg><svg xmlns="http://www.w3.org/2000/svg" width="51" height="39" x="374" y="207" fill="none" viewBox="-2 -2 51 39"><path fill="#FDB913" fill-rule="evenodd" d="M0 13.461L25.155 0v8.076l-17.374 9.19v.468l17.374 9.189V35L0 21.538v-8.077zm21.845 0L47 0v8.076l-17.375 9.19v.468L47 26.923V35L21.845 21.538v-8.077z" clip-rule="evenodd"/></svg><svg xmlns="http://www.w3.org/2000/svg" width="75" height="57" x="196" y="51" fill="none" viewBox="-2 -2 75 57"><path fill="#834CBB" d="M71 0L33 20.385v12.23L71 53V40.77L44.754 26.853v-.709L71 12.231V0z"/><path fill="#834CBB" d="M38 0L0 20.385v12.23L38 53V40.77L11.754 26.853v-.709L38 12.231V0z"/></svg><svg xmlns="http://www.w3.org/2000/svg" width="24" height="23" x="94" y="315" fill="none" viewBox="-2 -2 24 23"><g stroke="#000" stroke-width="2"><ellipse cx="8.644" cy="7.5" rx="6.771" ry="6.5"/><path stroke-linecap="round" d="M18.54 18l-5.208-5"/></g></svg><svg xmlns="http://www.w3.org/2000/svg" width="24" height="23" x="118" y="315" fill="none" viewBox="-2 -2 24 23"><g stroke="#fff" stroke-width="2"><ellipse cx="8.644" cy="7.5" rx="6.771" ry="6.5"/><path stroke-linecap="round" d="M18.54 18l-5.208-5"/></g></svg><svg xmlns="http://www.w3.org/2000/svg" width="29" height="24" y="347" fill="none" viewBox="-2 -2 29 24"><g fill="#000"><path d="M24.572 10.041v6.606c-5.04 4.47-18.96 4.47-24 0v-6.606c7.82 4.759 16.196 4.75 24 0zm-24-.082V3.353c5.041-4.47 18.96-4.47 24 0v6.606c-7.82-4.759-16.196-4.75-24 0z"/><ellipse cx="12.572" cy="10.041" rx="4.125" ry="3.861"/></g></svg><svg xmlns="http://www.w3.org/2000/svg" width="29" height="24" x="29" y="347" fill="none" viewBox="-2 -2 29 24"><g fill="#fff"><path d="M24.572 10.041v6.606c-5.04 4.47-18.96 4.47-24 0v-6.606c7.82 4.759 16.196 4.75 24 0zm-24-.082V3.353c5.041-4.47 18.96-4.47 24 0v6.606c-7.82-4.759-16.196-4.75-24 0z"/><ellipse cx="12.572" cy="10.041" rx="4.125" ry="3.861"/></g></svg><svg xmlns="http://www.w3.org/2000/svg" width="68" height="58" x="244" y="123" fill="none" viewBox="-2 -2 68 58"><path fill="#3A85FF" fill-rule="evenodd" d="M0 26.56V8.941c13.442-11.92 50.558-11.92 64 0V26.56c-9.122-5.551-18.529-8.67-27.968-9.36C40.112 18.705 43 22.427 43 26.78c0 4.105-2.567 7.649-6.28 9.302 9.216-.79 18.388-3.893 27.281-9.305v17.617c-13.442 11.92-50.558 11.92-64 0V26.778c8.9 5.416 18.072 8.516 27.28 9.305C23.567 34.43 21 30.886 21 26.781c0-4.354 2.887-8.076 6.966-9.582C18.52 17.891 9.113 21.013 0 26.56z" clip-rule="evenodd"/></svg><svg xmlns="http://www.w3.org/2000/svg" width="68" height="58" x="312" y="123" fill="none" viewBox="-2 -2 68 58"><path fill="#39B54A" fill-rule="evenodd" d="M0 26.56V8.941c13.442-11.92 50.558-11.92 64 0V26.56c-9.122-5.551-18.529-8.67-27.968-9.36C40.112 18.705 43 22.427 43 26.78c0 4.105-2.567 7.649-6.28 9.302 9.216-.79 18.388-3.893 27.281-9.305v17.617c-13.442 11.92-50.558 11.92-64 0V26.778c8.9 5.416 18.072 8.516 27.28 9.305C23.567 34.43 21 30.886 21 26.781c0-4.354 2.887-8.076 6.966-9.582C18.52 17.891 9.113 21.013 0 26.56z" clip-rule="evenodd"/></svg><svg xmlns="http://www.w3.org/2000/svg" width="68" height="58" x="380" y="123" fill="none" viewBox="-2 -2 68 58"><path fill="#834CBB" fill-rule="evenodd" d="M0 26.56V8.941c13.442-11.92 50.558-11.92 64 0V26.56c-9.122-5.551-18.529-8.67-27.968-9.36C40.112 18.705 43 22.427 43 26.78c0 4.105-2.567 7.649-6.28 9.302 9.216-.79 18.388-3.893 27.281-9.305v17.617c-13.442 11.92-50.558 11.92-64 0V26.778c8.9 5.416 18.072 8.516 27.28 9.305C23.567 34.43 21 30.886 21 26.781c0-4.354 2.887-8.076 6.966-9.582C18.52 17.891 9.113 21.013 0 26.56z" clip-rule="evenodd"/></svg><svg xmlns="http://www.w3.org/2000/svg" width="68" height="58" y="207" fill="none" viewBox="-2 -2 68 58"><path fill="#FF8214" fill-rule="evenodd" d="M0 26.56V8.941c13.442-11.92 50.558-11.92 64 0V26.56c-9.122-5.551-18.529-8.67-27.968-9.36C40.112 18.705 43 22.427 43 26.78c0 4.105-2.567 7.649-6.28 9.302 9.216-.79 18.388-3.893 27.281-9.305v17.617c-13.442 11.92-50.558 11.92-64 0V26.778c8.9 5.416 18.072 8.516 27.28 9.305C23.567 34.43 21 30.886 21 26.781c0-4.354 2.887-8.076 6.966-9.582C18.52 17.891 9.113 21.013 0 26.56z" clip-rule="evenodd"/></svg><svg xmlns="http://www.w3.org/2000/svg" width="68" height="58" x="68" y="207" fill="none" viewBox="-2 -2 68 58"><path fill="#EF5CA1" fill-rule="evenodd" d="M0 26.56V8.941c13.442-11.92 50.558-11.92 64 0V26.56c-9.122-5.551-18.529-8.67-27.968-9.36C40.112 18.705 43 22.427 43 26.78c0 4.105-2.567 7.649-6.28 9.302 9.216-.79 18.388-3.893 27.281-9.305v17.617c-13.442 11.92-50.558 11.92-64 0V26.778c8.9 5.416 18.072 8.516 27.28 9.305C23.567 34.43 21 30.886 21 26.781c0-4.354 2.887-8.076 6.966-9.582C18.52 17.891 9.113 21.013 0 26.56z" clip-rule="evenodd"/></svg><svg xmlns="http://www.w3.org/2000/svg" width="68" height="58" x="136" y="207" fill="none" viewBox="-2 -2 68 58"><path fill="#fff" fill-rule="evenodd" d="M0 26.56V8.941c13.442-11.92 50.558-11.92 64 0V26.56c-9.122-5.551-18.529-8.67-27.968-9.36C40.112 18.705 43 22.427 43 26.78c0 4.105-2.567 7.649-6.28 9.302 9.216-.79 18.388-3.893 27.281-9.305v17.617c-13.442 11.92-50.558 11.92-64 0V26.778c8.9 5.416 18.072 8.516 27.28 9.305C23.567 34.43 21 30.886 21 26.781c0-4.354 2.887-8.076 6.966-9.582C18.52 17.891 9.113 21.013 0 26.56z" clip-rule="evenodd"/></svg><svg xmlns="http://www.w3.org/2000/svg" width="68" height="58" x="204" y="207" fill="none" viewBox="-2 -2 68 58"><path fill="#FDB913" fill-rule="evenodd" d="M0 26.56V8.941c13.442-11.92 50.558-11.92 64 0V26.56c-9.122-5.551-18.529-8.67-27.968-9.36C40.112 18.705 43 22.427 43 26.78c0 4.105-2.567 7.649-6.28 9.302 9.216-.79 18.388-3.893 27.281-9.305v17.617c-13.442 11.92-50.558 11.92-64 0V26.778c8.9 5.416 18.072 8.516 27.28 9.305C23.567 34.43 21 30.886 21 26.781c0-4.354 2.887-8.076 6.966-9.582C18.52 17.891 9.113 21.013 0 26.56z" clip-rule="evenodd"/></svg><svg xmlns="http://www.w3.org/2000/svg" width="485" height="51" fill="none" viewBox="-2 -2 485 51"><linearGradient id="a"><stop offset=".051" stop-color="#39b54a"/><stop offset=".331" stop-color="#fdb913"/><stop offset=".636" stop-color="#ef5ca1"/><stop offset=".957" stop-color="#1c75bc"/></linearGradient><linearGradient id="b" x1="257.134" x2="359.608" y1="42.804" y2="5.776" gradientUnits="userSpaceOnUse" xlink:href="#a"/><linearGradient id="c" x1="-1.108" x2="63.828" y1="34.862" y2="11.127" gradientUnits="userSpaceOnUse" xlink:href="#a"/><path fill="url(#b)" fill-rule="evenodd" d="M336.6 22.767l8.086-7.447h3.333v15.674h-3.333v-7.59l-8.086 7.519h-3.333V15.32h3.333zm9.22-10.213c-.425.283-.993.567-1.844.85-.78.284-1.914.426-3.404.426-1.489 0-2.624-.142-3.404-.425-.78-.284-1.419-.568-1.844-.851V8.369c.78.568 1.631.922 2.553 1.135s1.773.355 2.624.355 1.773-.142 2.766-.355 1.773-.567 2.412-1.135v4.185zm-92.199 4.326c-.71.355-1.277.71-1.632 1.064v10.425c.426.355.922.71 1.632 1.064.638.355 1.489.639 2.411.922.922.284 1.986.497 3.191.639 1.206.212 2.483.283 3.83.283 1.419 0 2.695-.07 3.901-.283 1.135-.142 2.199-.355 3.121-.639.922-.212 1.702-.567 2.411-.922.638-.354 1.206-.709 1.56-1.064V17.944c-.354-.355-.922-.71-1.56-1.064-.709-.355-1.489-.638-2.411-.922a79.076 79.076 0 00-3.121-.638c-1.135-.142-2.482-.213-3.901-.213-1.418 0-2.695.07-3.83.213-1.205.141-2.269.354-3.191.638s-1.773.567-2.411.922zm15.886 7.66c-.78.283-1.702.496-2.766.709s-2.34.284-3.688.284c-1.418 0-2.624-.071-3.688-.284s-1.986-.426-2.695-.71c-.709-.212-1.347-.496-1.773-.78-.114-.076-.223-.146-.324-.212-.276-.18-.494-.322-.598-.426.088-.058.189-.13.306-.212.166-.118.367-.26.616-.426.331-.221.792-.399 1.314-.6h.001c.148-.058.301-.117.458-.18.709-.284 1.631-.497 2.695-.71 1.064-.212 2.27-.283 3.688-.283 1.419 0 2.624.07 3.688.284 1.064.212 1.986.425 2.766.709.157.063.311.122.459.18.523.201.983.379 1.314.6l.324.213c.277.18.494.321.598.425-.088.059-.188.13-.306.213-.166.118-.367.26-.616.425-.425.213-1.064.497-1.773.78zm16.312-4.61h-7.517v-4.61h-3.334v15.603h3.334v-5.32h7.517v5.32h3.334V15.249h-3.334v4.68zm20.71 11.064h-3.333v-9.93h-4.61v4.681c0 .851-.071 1.631-.142 2.27-.142.638-.355 1.206-.709 1.631-.355.426-.922.78-1.632.993-.709.213-1.631.355-2.837.355h-3.262V27.66h.567c.922 0 1.49-.213 1.844-.709.355-.497.497-1.277.497-2.482v-9.15H306.6v15.675zm2.482-14.114c-.709.355-1.276.71-1.631 1.064v10.638c.426.355.922.71 1.631 1.064.639.355 1.49.639 2.412.922.922.284 1.986.497 3.191.638 1.206.213 2.483.284 3.83.284 2.624 0 4.894-.284 6.667-.78 1.773-.567 3.12-1.135 3.972-1.844v2.27h3.333V15.46h-3.333v2.27c-.852-.71-2.199-1.348-3.972-1.844s-4.043-.78-6.667-.78c-1.418 0-2.695.07-3.83.213-1.205.141-2.269.354-3.191.638s-1.773.567-2.412.922zm15.887 7.66c-.78.283-1.702.496-2.766.709s-2.34.284-3.688.284c-1.418 0-2.624-.071-3.688-.284s-1.986-.426-2.695-.71c-.709-.212-1.347-.496-1.773-.78l-.324-.212c-.276-.18-.494-.322-.598-.426.088-.058.188-.13.306-.212.166-.118.367-.26.616-.426.331-.221.792-.399 1.314-.6.149-.058.302-.117.459-.18.709-.284 1.631-.497 2.695-.71 1.064-.212 2.27-.283 3.688-.283 1.419 0 2.624.07 3.688.284 1.064.212 1.986.425 2.766.709.157.063.31.122.459.18.522.201.983.379 1.314.6l.324.213c.277.18.494.321.598.425-.088.059-.188.13-.306.213-.166.117-.367.26-.616.425-.425.213-1.064.497-1.773.78zm34.823-4.61h-7.447v-4.61h-3.333v15.603h3.262v-5.32h7.518v5.32h3.334V15.249h-3.334v4.68z" clip-rule="evenodd"/><path fill="url(#c)" d="M58.228 5.248c-1.915-.993-4.256-1.844-6.88-2.624-2.624-.71-5.603-1.347-8.936-1.915A89.129 89.129 0 0031.277 0c-3.9 0-7.518.213-10.78.71-3.405.496-6.383 1.134-9.078 1.914a43.883 43.883 0 00-6.88 2.624C2.624 6.241 1.064 7.305 0 8.298v29.646c1.064.993 2.624 2.057 4.54 2.979 1.914.992 4.184 1.914 6.879 2.624 2.695.78 5.744 1.418 9.078 1.915 3.333.496 6.95.78 10.78.78 4.043 0 7.802-.284 11.135-.78 3.333-.426 6.312-1.064 8.936-1.915a36.688 36.688 0 006.88-2.624c1.915-.993 3.404-1.986 4.468-2.98V8.299c-1.064-.993-2.553-2.057-4.468-3.05zM49.22 6.596c0-.497.425-.78.922-.638l.85.212c.497.142.923.639.923 1.135v2.057c0 .496-.426.78-.922.638-.284-.07-.568-.142-.851-.213-.497-.141-.922-.638-.922-1.134zm-7.731-1.49c0-.496.425-.85.922-.78.284.071.567.071.922.142.496.071.922.568.922 1.064v2.057c0 .496-.426.85-.922.78-.284-.071-.567-.071-.922-.142-.496-.07-.922-.567-.922-1.064zm-7.802-.709c0-.496.426-.922.922-.85.284 0 .639 0 .922.07.497 0 .922.497.922.993v2.057c0 .496-.425.85-.922.85-.283 0-.638 0-.922-.07a.939.939 0 01-.922-.922zm-7.872.142c0-.496.425-.922.922-.993h.922c.496 0 .922.355.922.851v2.057a.939.939 0 01-.922.922c-.284 0-.638 0-.922.07-.497 0-.922-.354-.922-.85zm-7.801.993c0-.496.425-.993.921-1.064.284-.07.568-.07.922-.142.497-.07.922.284.922.78v2.057c0 .497-.425.993-.922 1.064-.283.071-.567.071-.922.142-.496.07-.921-.213-.921-.78zm-7.66 1.844c0-.496.425-.993.922-1.135.284-.07.567-.142.85-.213.497-.141.923.142.923.639v2.057c0 .496-.426.992-.922 1.134l-.851.213c-.497.142-.922-.142-.922-.638zM2.837 10c0-.496.355-1.064.851-1.276.284-.142.567-.213.851-.355.497-.213.851.07.851.567v2.057c0 .496-.425 1.064-.85 1.206-.285.142-.568.213-.852.354-.426.284-.851 0-.851-.496zM5.46 36.454c0 .497-.425.78-.851.568-.284-.142-.567-.213-.851-.355-.497-.142-.922-.709-.922-1.206v-2.056c0-.497.355-.71.851-.568.284.142.567.213.851.355.497.213.851.71.851 1.206.071.709.071 1.347.071 2.056zm7.589 2.34c0 .497-.426.781-.922.64l-.851-.214c-.497-.141-.922-.638-.922-1.134v-2.057c0-.497.425-.78.922-.638l.85.212c.497.142.923.639.923 1.135v2.057zm7.73 1.561c0 .497-.425.851-.922.78-.283-.07-.567-.07-.922-.142-.496-.07-.921-.567-.921-1.063v-2.057c0-.497.425-.851.921-.78.284.07.568.07.922.142.497.07.922.567.922 1.063zm7.802.639c0 .496-.426.922-.922.85-.284 0-.638 0-.922-.07-.497 0-.922-.497-.922-.993v-2.057c0-.496.425-.851.922-.851.284 0 .638 0 .922.07a.94.94 0 01.922.923v2.127zm7.872-.142c0 .496-.425.922-.922.993-.283 0-.638 0-.922.07-.496 0-.922-.354-.922-.85v-2.057c0-.497.426-.922.922-.922.284 0 .639 0 .922-.071.497 0 .922.354.922.85zm7.802-.922c0 .496-.426.993-.922 1.063-.284.071-.567.071-.922.142-.496.071-.922-.283-.922-.78v-2.057c0-.496.425-.992.922-1.063.284-.071.567-.071.922-.142.496-.071.922.212.922.78zm7.66-1.844c0 .496-.426.993-.922 1.134l-.851.213c-.497.142-.922-.142-.922-.638v-2.057c0-.496.425-.993.922-1.135l.85-.212c.497-.142.923.141.923.638zm-2.27-10.922a61.9 61.9 0 01-7.801 1.985c-3.05.568-6.525.851-10.568.851-3.972 0-7.518-.283-10.568-.85-3.05-.568-5.602-1.206-7.73-1.986-2.128-.71-3.83-1.49-5.036-2.34-1.276-.781-2.127-1.42-2.553-1.774.426-.426 1.348-.993 2.553-1.773 1.277-.71 2.98-1.49 5.036-2.199a57.582 57.582 0 017.73-1.985c3.05-.497 6.525-.78 10.568-.78 3.972 0 7.518.283 10.568.78 3.05.567 5.602 1.205 7.801 1.985 2.128.71 3.83 1.49 5.036 2.199 1.276.78 2.127 1.418 2.553 1.773-.426.425-1.348.993-2.553 1.773-1.206.851-2.908 1.631-5.036 2.34zm9.788 8.297c0 .497-.355 1.064-.852 1.277-.283.142-.567.213-.85.355-.497.212-.852-.071-.852-.568V34.47c0-.497.426-1.064.851-1.206.284-.142.568-.213.851-.355.497-.212.852.071.852.568v1.986zm0-23.404c0 .496-.355.71-.852.567-.283-.142-.567-.213-.85-.354-.497-.213-.852-.71-.852-1.206V9.007c0-.496.426-.78.851-.567.284.142.568.213.851.354.497.213.852.78.852 1.277z"/><path fill="#fff" d="M73.547 25.249c.993 0 1.773-.284 2.199-.922.425-.639.638-1.632.638-3.05v-6.029h14.255v9.93h3.05v9.645h-3.05v-3.9H75.675v3.9h-3.05V25.25h.922zm13.83-4.256h-5.248c0 .71-.071 1.348-.213 1.844-.142.497-.284.922-.426 1.206-.212.355-.354.567-.567.78s-.425.355-.638.426h7.021v-4.256zm10.568 1.773l8.085-7.517h3.333v15.673h-3.333v-7.517l-8.085 7.517H94.61V15.32h3.334v7.447zm12.34-4.823c.355-.354.922-.709 1.632-1.064.638-.354 1.489-.638 2.411-.922.922-.283 1.986-.496 3.191-.638a31.124 31.124 0 013.83-.213c2.624 0 4.894.284 6.667.78 1.773.497 3.121 1.135 3.972 1.845v-2.27h3.333v15.674h-3.404v-2.27c-.851.71-2.199 1.277-3.972 1.845-1.773.496-4.042.78-6.667.78-1.347 0-2.624-.071-3.829-.284-1.206-.142-2.27-.355-3.192-.638-.922-.284-1.773-.568-2.411-.922a8.122 8.122 0 01-1.632-1.064V17.943zm14.681 7.305c1.064-.212 1.986-.425 2.766-.709.71-.284 1.348-.567 1.773-.78.426-.284.71-.496.922-.638-.141-.142-.496-.355-.922-.639-.425-.283-1.063-.496-1.773-.78-.78-.283-1.702-.496-2.766-.709-1.063-.213-2.269-.284-3.688-.284-1.418 0-2.624.071-3.688.284-1.063.213-1.985.426-2.695.71-.709.283-1.347.496-1.773.78-.425.283-.709.496-.922.638.142.142.497.354.922.638.426.284 1.064.567 1.773.78.71.284 1.632.497 2.695.71 1.064.212 2.27.283 3.688.283 1.419 0 2.625-.07 3.688-.284zm11.206-7.304c.425-.355.993-.71 1.773-1.064.78-.355 1.702-.639 2.766-.851 1.064-.284 2.269-.497 3.617-.639 1.348-.141 2.766-.283 4.255-.283v-6.95h3.334v6.95c3.191.07 5.886.354 7.943.922 2.128.567 3.617 1.205 4.468 1.986v10.354c-.851.78-2.34 1.419-4.468 1.986s-4.752.851-7.943.922v7.589h-3.334v-7.589c-1.56-.07-2.978-.142-4.255-.284-1.348-.141-2.553-.354-3.617-.638s-1.986-.567-2.766-.922-1.348-.71-1.773-1.064zm2.908 5.744c.496.284 1.205.497 2.056.78.852.284 1.915.497 3.121.71 1.206.212 2.624.354 4.255.425v-4.752a56.994 56.994 0 00-4.255.355 47.385 47.385 0 00-3.121.638 13.45 13.45 0 00-2.056.71c-.497.212-.851.425-.993.638.142.07.496.213.993.496zm12.766 1.844c1.631-.07 3.05-.212 4.255-.425 1.206-.213 2.27-.426 3.121-.71.851-.212 1.56-.496 2.057-.78.496-.212.851-.425.993-.567-.213-.142-.497-.355-.993-.638a13.516 13.516 0 00-2.057-.71c-.851-.212-1.915-.496-3.121-.638-1.276-.212-2.695-.283-4.255-.354zm16.596-2.766l8.085-7.517h3.334v15.673h-3.334v-7.517l-8.085 7.517h-3.333V15.32h3.333v7.447zm28.866 8.227h-3.334v-9.929h-4.61v4.681c0 .851-.071 1.631-.141 2.27-.142.638-.355 1.205-.71 1.63-.354.426-.922.78-1.631.994-.709.213-1.631.354-2.837.354h-3.262V27.66h.567c.922 0 1.489-.213 1.844-.71.355-.496.497-1.276.497-2.482V15.32h13.688v15.674h-.071zm22.695-2.623c-.78.708-2.057 1.347-3.901 1.843-1.844.497-4.255.78-7.092.78h-10.709V15.32h3.333v3.617h7.518c1.348 0 2.553.071 3.759.213a36.86 36.86 0 013.191.568 13.78 13.78 0 012.412.78 7.525 7.525 0 011.56.922v6.95zm-10.142-2.2c1.419 0 2.553-.07 3.546-.141s1.844-.213 2.483-.284c.638-.142 1.134-.284 1.489-.425.355-.142.567-.284.709-.426-.142-.071-.354-.213-.709-.355s-.851-.283-1.489-.425c-.639-.142-1.49-.213-2.483-.284a49.116 49.116 0 00-3.546-.142h-8.298V26.1h8.298zm22.553-.283l4.327-10.568h8.369v15.674h-3.263V19.858l-4.539 11.135h-6.099L226.599 20v10.993h-5.745V15.32h7.092l4.468 10.568zm137.45-5.603v-5.036h1.347v1.844h2.057v-1.844h1.348v5.036h-1.348v-1.986h-2.057v1.986zm9.007 0v-.497c-.355.426-.922.638-1.56.638-.78 0-1.773-.567-1.773-1.63 0-1.136.922-1.632 1.773-1.632.638 0 1.276.213 1.56.638v-.638c0-.497-.426-.851-1.064-.851-.567 0-1.064.213-1.489.567l-.497-.85c.639-.568 1.419-.781 2.199-.781 1.135 0 2.199.426 2.199 1.915v3.262h-1.348zm0-1.206v-.638c-.213-.284-.638-.426-1.064-.426-.496 0-.922.284-.922.78 0 .497.426.71.922.71.426 0 .851-.142 1.064-.426zm2.198-1.277c0-1.56 1.135-2.624 2.624-2.624.993 0 1.632.426 1.986.922l-.851.78c-.213-.354-.567-.567-1.064-.567-.78 0-1.347.567-1.347 1.418 0 .852.567 1.49 1.347 1.49.426 0 .851-.213 1.064-.567l.851.78c-.354.496-.922.922-1.986.922-1.489.07-2.624-.993-2.624-2.554zm6.525 2.483v-3.83h-1.418V15.32h4.113v1.135h-1.418v3.83h-1.277zm3.192-2.483c0-1.418.993-2.624 2.624-2.624 1.632 0 2.624 1.206 2.624 2.624 0 1.419-.992 2.625-2.624 2.625-1.631 0-2.624-1.206-2.624-2.625zm3.901 0c0-.78-.497-1.418-1.277-1.418-.851 0-1.276.638-1.276 1.418s.425 1.49 1.276 1.49c.78-.071 1.277-.71 1.277-1.49zm2.057 2.483l1.134-1.844c-.567-.142-1.134-.639-1.134-1.56 0-.852.638-1.632 1.702-1.632h3.049v5.036h-1.347V18.58h-.993l-.993 1.703h-1.418zm3.475-2.837v-1.064h-1.49c-.354 0-.567.213-.567.496 0 .355.213.568.567.568zm9.787-2.128v3.83h.638v2.411h-1.347v-1.276h-6.525v-5.036h1.347v3.9h1.632V15.32h1.347v3.83h1.631v-3.83h1.277zm4.539 4.965v-.497c-.354.426-.922.638-1.56.638-.78 0-1.773-.567-1.773-1.63 0-1.136.922-1.632 1.773-1.632.638 0 1.277.213 1.56.638v-.638c0-.497-.425-.851-1.064-.851-.567 0-1.063.213-1.489.567l-.496-.85c.638-.568 1.418-.781 2.198-.781 1.135 0 2.199.426 2.199 1.915v3.262h-1.348zm0-1.206v-.638c-.212-.284-.638-.426-1.064-.426-.496 0-.922.284-.922.78 0 .497.426.71.922.71.426 0 .852-.142 1.064-.426zm2.269 1.206l1.135-1.844c-.567-.142-1.135-.639-1.135-1.56 0-.852.639-1.632 1.703-1.632h3.049v5.036h-1.347V18.58h-.993l-.993 1.703h-1.419zm3.547-2.837v-1.064h-1.49c-.354 0-.567.213-.567.496 0 .355.213.568.567.568zm4.893.142c0-2.412.851-3.546 2.625-3.76.851-.141 1.134-.283 1.134-.425h1.348c0 .993-1.277 1.277-2.057 1.348-1.206.142-1.702.638-1.773 1.276.426-.496.993-.85 1.702-.85 1.419 0 2.341 1.205 2.341 2.623 0 1.419-.993 2.625-2.624 2.625-1.703 0-2.696-1.277-2.696-2.837zm3.901.142c0-.78-.496-1.419-1.276-1.419-.852 0-1.277.638-1.277 1.419 0 .78.425 1.489 1.277 1.489.851 0 1.276-.638 1.276-1.49zm2.341 2.553v-5.036h1.348v3.05l2.056-3.05h1.348v5.036H434.9v-3.121l-2.127 3.12h-1.277zm5.674-2.695c0-2.412.851-3.546 2.624-3.76.851-.141 1.135-.283 1.135-.425h1.347c0 .993-1.276 1.277-2.056 1.348-1.206.142-1.703.638-1.773 1.276.425-.496.992-.85 1.702-.85 1.418 0 2.34 1.205 2.34 2.623 0 1.419-.993 2.625-2.624 2.625-1.702 0-2.695-1.277-2.695-2.837zm3.972.142c0-.78-.497-1.419-1.277-1.419s-1.277.638-1.277 1.419c0 .78.426 1.489 1.277 1.489s1.277-.638 1.277-1.49zm1.773 1.631c.425 0 .638-.426.78-1.631l.354-2.412h4.043v5.036h-1.348v-3.83h-1.56l-.142 1.419c-.213 1.702-.851 2.553-2.127 2.553zm6.382.922v-5.036h1.348v3.05l2.057-3.05h1.347v5.036h-1.347v-3.121l-2.128 3.12h-1.277zm5.674-2.483c0-1.418.993-2.624 2.624-2.624 1.632 0 2.625 1.206 2.625 2.624 0 1.419-.993 2.625-2.625 2.625-1.631 0-2.624-1.206-2.624-2.625zm3.901 0c0-.78-.496-1.418-1.277-1.418-.851 0-1.276.638-1.276 1.418s.425 1.49 1.276 1.49c.781-.071 1.277-.71 1.277-1.49zm3.191 2.483v-3.83h-1.418V15.32h4.114v1.135h-1.419v3.83h-1.277zm3.192-2.483c0-1.418 1.064-2.624 2.625-2.624 1.489 0 2.482 1.135 2.482 2.766v.284h-3.688c.071.638.567 1.135 1.418 1.135.426 0 .993-.213 1.348-.497l.567.851c-.496.426-1.276.71-2.057.71-1.56 0-2.695-1.064-2.695-2.625zm2.554-1.56c-.851 0-1.206.638-1.206 1.135h2.482c-.071-.568-.425-1.135-1.276-1.135zm6.666 4.043l-1.347-1.915-.568.638v1.277h-1.347v-5.036h1.347v2.199l1.915-2.199h1.632l-1.986 2.27 2.057 2.766zm5.178 0v-.497c-.355.426-.922.638-1.561.638-.78 0-1.773-.567-1.773-1.63 0-1.136.922-1.632 1.773-1.632.639 0 1.277.213 1.561.638v-.638c0-.497-.426-.851-1.064-.851-.568 0-1.064.213-1.489.567l-.497-.85c.638-.568 1.418-.781 2.199-.781 1.134 0 2.198.426 2.198 1.915v3.262h-1.347zm0-1.206v-.638c-.213-.284-.639-.426-1.064-.426-.497 0-.922.284-.922.78 0 .497.425.71.922.71.425 0 .851-.142 1.064-.426zM373.268 30.993v-3.83h-2.057v3.83h-1.347v-5.035h4.681v5.035zm2.27-2.553c0-1.419.993-2.625 2.624-2.625s2.624 1.206 2.624 2.625c0 1.418-.993 2.624-2.624 2.624-1.631.07-2.624-1.135-2.624-2.624zm3.9 0c0-.78-.496-1.419-1.276-1.419-.851 0-1.277.638-1.277 1.419 0 .78.426 1.489 1.277 1.489s1.276-.638 1.276-1.49zm1.703 1.844l.567-.85c.496.425 1.135.566 1.702.566.638 0 1.064-.212 1.064-.567s-.426-.567-1.135-.567h-.993v-.993h.993c.709 0 .993-.213.993-.568 0-.283-.425-.496-.993-.496-.638 0-1.135.213-1.56.567l-.638-.78c.496-.496 1.205-.85 2.127-.85 1.561 0 2.412.496 2.412 1.347 0 .638-.639 1.064-1.277 1.205.638.071 1.419.426 1.419 1.206 0 .851-.922 1.49-2.412 1.49-.922.141-1.773-.213-2.269-.71zm5.744.709v-5.035h1.348v3.05l2.057-3.05h1.347v5.035h-1.347v-3.12l-2.128 3.12zm6.809 0v-3.83h-1.419v-1.135h4.114v1.135h-1.418v3.83zm3.475 0v-5.035h1.348v3.05l2.056-3.05h1.348v5.035h-1.348v-3.12l-2.127 3.12zm5.957 0v-5.035h3.192c.993 0 1.56.638 1.56 1.276 0 .567-.354.993-.851 1.135.568.142.922.638.922 1.206 0 .78-.567 1.347-1.56 1.347h-3.263zm3.334-3.546c0-.284-.142-.426-.497-.426h-1.56v.851h1.56c.355 0 .497-.141.497-.425zm.071 1.986a.485.485 0 00-.497-.497h-1.631v.922h1.631c.355.071.497-.142.497-.425zm2.128-.993c0-1.419.993-2.625 2.624-2.625s2.624 1.206 2.624 2.625c0 1.418-.993 2.624-2.624 2.624-1.631.07-2.624-1.135-2.624-2.624zm3.9 0c0-.78-.496-1.419-1.276-1.419-.851 0-1.277.638-1.277 1.419 0 .78.426 1.489 1.277 1.489s1.276-.638 1.276-1.49zm2.341 2.553v-5.035h3.191c.993 0 1.561.638 1.561 1.276 0 .567-.355.993-.851 1.135.567.142.922.638.922 1.206 0 .78-.568 1.347-1.561 1.347H414.9zm3.333-3.546c0-.284-.142-.426-.496-.426h-1.56v.851h1.56c.354 0 .496-.141.496-.425zm.142 1.986a.485.485 0 00-.496-.497h-1.632v.922h1.632c.283.071.496-.142.496-.425z"/></svg><svg xmlns="http://www.w3.org/2000/svg" width="196" height="72" y="51" fill="none" viewBox="-2 -2 196 72"><path fill="url(#bqpaint0_linear_2008_4227)" fill-rule="evenodd" d="M122.254 37.905l6.326-5.858h2.608v12.33h-2.608v-5.97l-6.326 5.914h-2.607V32.048h2.607v5.857zm7.214-8.033c-.333.223-.777.446-1.443.67-.61.222-1.498.334-2.663.334-1.166 0-2.053-.112-2.664-.335-.61-.223-1.109-.446-1.442-.67v-3.29c.61.446 1.276.725 1.997.892.722.167 1.387.279 2.053.279.666 0 1.387-.112 2.164-.28.777-.166 1.387-.445 1.887-.892v3.292h.111zm-72.132 3.403c-.555.28-1 .558-1.277.837v8.2c.333.28.722.559 1.277.838.499.279 1.165.502 1.886.725.721.223 1.554.39 2.497.502.943.167 1.942.223 2.996.223 1.11 0 2.109-.056 3.052-.223.888-.112 1.72-.28 2.441-.502.722-.168 1.332-.447 1.887-.725.5-.28.943-.558 1.22-.837v-8.2c-.277-.28-.72-.559-1.22-.838-.555-.279-1.165-.502-1.887-.725a61.684 61.684 0 00-2.441-.502 25.147 25.147 0 00-3.052-.167c-1.11 0-2.108.055-2.996.167-.943.111-1.776.279-2.497.502-.721.223-1.387.446-1.886.725zM69.763 39.3c-.61.223-1.331.39-2.164.558-.832.168-1.83.223-2.885.223-1.11 0-2.053-.056-2.885-.223-.832-.167-1.554-.335-2.109-.558-.554-.167-1.054-.39-1.387-.613a25.66 25.66 0 00-.253-.168c-.216-.141-.387-.253-.468-.334.069-.047.147-.102.24-.168.13-.092.286-.204.481-.335.26-.173.62-.313 1.028-.472l.36-.141c.554-.223 1.276-.39 2.108-.558.832-.168 1.775-.223 2.885-.223 1.11 0 2.053.056 2.885.223.833.167 1.554.335 2.164.558.123.05.243.096.359.14.41.16.77.3 1.028.473l.254.168c.216.141.387.253.468.334-.069.047-.147.102-.24.168-.13.092-.286.204-.481.335-.333.167-.833.39-1.388.613zm12.762-3.627h-5.881v-3.626h-2.608v12.274h2.608v-4.184h5.881v4.184h2.608V31.99h-2.608v3.682zm16.203 8.703H96.12v-7.81h-3.607v3.682c0 .67-.055 1.283-.11 1.785-.112.502-.278.948-.555 1.283-.278.335-.722.614-1.277.781-.555.168-1.276.28-2.22.28H85.8v-2.623h.444c.72 0 1.165-.167 1.442-.558.278-.39.389-1.004.389-1.952v-7.197h10.708v12.33h-.055zm1.942-11.1c-.555.278-.999.557-1.276.836v8.368c.333.279.721.558 1.276.837.5.279 1.166.502 1.887.725.721.223 1.553.39 2.497.502.943.168 1.942.223 2.996.223 2.053 0 3.828-.223 5.216-.613 1.387-.447 2.441-.893 3.107-1.45v1.784h2.608V32.16h-2.608v1.785c-.666-.558-1.72-1.06-3.107-1.45-1.388-.391-3.163-.614-5.216-.614-1.11 0-2.109.055-2.996.167-.944.111-1.776.279-2.497.502-.721.223-1.387.446-1.887.725zM113.1 39.3c-.61.223-1.331.39-2.164.558-.832.168-1.831.223-2.885.223-1.11 0-2.053-.056-2.885-.223-.833-.167-1.554-.335-2.109-.558-.555-.167-1.054-.39-1.387-.613l-.253-.168c-.217-.141-.387-.253-.468-.334.069-.047.147-.102.239-.168.13-.092.287-.204.482-.335.259-.173.619-.313 1.028-.472l.359-.141c.555-.223 1.276-.39 2.109-.558.832-.168 1.775-.223 2.885-.223 1.11 0 2.053.056 2.885.223.833.167 1.554.335 2.164.558.123.05.243.096.359.14.409.16.769.3 1.028.473l.254.168c.216.141.386.253.468.334-.069.047-.148.102-.24.168-.13.092-.287.204-.482.335-.333.167-.832.39-1.387.613zm27.243-3.627h-5.826v-3.626h-2.608v12.274h2.552v-4.184h5.882v4.184h2.608V31.99h-2.608v3.682z" clip-rule="evenodd"/><path fill="url(#bqpaint1_linear_2008_4227)" d="M45.556 4.128c-1.498-.78-3.33-1.45-5.383-2.064-2.053-.558-4.383-1.06-6.991-1.506A69.363 69.363 0 0024.47 0c-3.052 0-5.881.167-8.434.558-2.663.39-4.994.892-7.102 1.506A34.22 34.22 0 003.55 4.128C2.053 4.91.832 5.746 0 6.528v23.318c.832.781 2.053 1.618 3.551 2.343a25.919 25.919 0 005.383 2.064c2.108.614 4.494 1.116 7.102 1.507 2.608.39 5.438.613 8.434.613 3.163 0 6.104-.223 8.712-.613 2.608-.335 4.938-.837 6.991-1.507a28.606 28.606 0 005.383-2.064c1.498-.78 2.663-1.562 3.495-2.343V6.527c-.832-.78-1.997-1.618-3.495-2.399zm-7.047 1.06c0-.39.333-.613.721-.502l.666.167c.388.112.721.503.721.893v1.618c0 .39-.333.614-.721.502l-.666-.167c-.388-.112-.721-.502-.721-.893V5.188zM32.46 4.017c0-.39.333-.67.72-.614.223.056.445.056.722.112.389.055.722.446.722.836V5.97c0 .39-.333.67-.722.614-.222-.056-.444-.056-.721-.112-.389-.055-.721-.446-.721-.837V4.017zm-6.104-.558c0-.39.333-.725.721-.67.222 0 .5 0 .721.056.389 0 .722.39.722.781v1.618c0 .39-.333.67-.722.67-.221 0-.499 0-.72-.056a.737.737 0 01-.722-.726V3.46zm-6.16.111c0-.39.334-.725.722-.78h.721c.389 0 .722.278.722.669v1.618c0 .39-.333.725-.722.725-.222 0-.499 0-.721.056-.388 0-.721-.28-.721-.67V3.57zm-6.103.781c0-.39.333-.78.721-.836.222-.056.444-.056.722-.112a.616.616 0 01.721.614v1.617c0 .391-.333.782-.721.837-.222.056-.444.056-.722.112-.388.056-.721-.167-.721-.614V4.351zM8.1 5.801c0-.39.333-.78.722-.892l.665-.167c.389-.112.722.111.722.502v1.618c0 .39-.333.78-.722.892l-.665.168c-.389.111-.722-.112-.722-.502V5.802zM2.22 7.867c0-.39.277-.837.665-1.004.222-.112.444-.168.666-.28.389-.166.666.057.666.447v1.618c0 .39-.333.837-.666.948-.222.112-.444.168-.666.28-.333.223-.665 0-.665-.391V7.866zm2.053 20.809c0 .39-.333.613-.666.446-.222-.112-.444-.168-.666-.28-.389-.11-.721-.557-.721-.948v-1.617c0-.39.277-.558.665-.447.222.112.444.168.666.28.389.167.666.557.666.948.056.558.056 1.06.056 1.618zm5.937 1.84c0 .391-.333.614-.722.503l-.665-.168c-.389-.111-.722-.502-.722-.892V28.34c0-.39.333-.614.722-.502l.665.167c.389.112.722.502.722.893v1.617zm6.048 1.228c0 .39-.333.67-.721.613-.222-.055-.444-.055-.722-.111-.388-.056-.721-.446-.721-.837V29.79c0-.39.333-.67.721-.613.222.055.444.055.722.111.388.056.721.447.721.837v1.618zm6.104.502c0 .39-.333.725-.722.67-.222 0-.499 0-.721-.056-.388 0-.721-.39-.721-.781V30.46c0-.39.333-.67.721-.67.222 0 .5 0 .721.056.389 0 .722.335.722.725v1.674zm6.159-.112c0 .39-.333.726-.722.781-.221 0-.499 0-.72.056-.39 0-.722-.279-.722-.67v-1.617c0-.39.333-.725.721-.725.222 0 .5 0 .721-.056.389 0 .722.279.722.67v1.561zm6.104-.725c0 .39-.333.781-.722.837-.222.056-.444.056-.721.111a.616.616 0 01-.721-.613v-1.618c0-.39.333-.781.72-.837.223-.056.445-.056.722-.111.389-.056.722.167.722.613v1.618zm5.992-1.45c0 .39-.333.78-.721.892l-.666.168c-.388.111-.721-.112-.721-.503v-1.617c0-.39.333-.781.721-.893l.666-.167c.388-.112.721.111.721.502v1.618zm-1.775-8.592a48.224 48.224 0 01-6.104 1.563c-2.386.446-5.105.669-8.268.669-3.107 0-5.881-.223-8.267-.67-2.386-.446-4.384-.948-6.049-1.562-1.664-.557-2.996-1.171-3.94-1.84-.998-.614-1.664-1.116-1.997-1.395.333-.335 1.054-.781 1.998-1.395.998-.558 2.33-1.171 3.94-1.73a44.875 44.875 0 016.048-1.561c2.386-.39 5.104-.614 8.267-.614 3.108 0 5.882.223 8.268.614 2.386.446 4.383.948 6.104 1.562 1.664.558 2.996 1.171 3.94 1.73.998.613 1.664 1.115 1.997 1.394-.333.334-1.054.78-1.998 1.395-.943.669-2.275 1.283-3.94 1.84zm7.657 6.527c0 .391-.277.837-.666 1.005-.222.111-.444.167-.666.279-.388.167-.666-.056-.666-.447v-1.617c0-.391.333-.837.666-.949.222-.111.444-.167.666-.279.389-.167.666.056.666.446v1.563zm0-18.41c0 .391-.277.559-.666.447-.222-.111-.444-.167-.666-.279-.388-.167-.666-.558-.666-.948V7.085c0-.39.333-.614.666-.446.222.111.444.167.666.279.389.167.666.613.666 1.004v1.562z"/><path fill="#fff" d="M58.178 18.832c.775 0 1.384-.22 1.715-.713.332-.495.498-1.264.498-2.362v-4.669h11.12v7.69h2.379v7.47h-2.38v-3.021H59.839v3.02H57.46v-7.415h.72zm10.788-3.295h-4.094c0 .55-.055 1.044-.166 1.428-.11.385-.221.714-.332.934-.166.274-.276.44-.442.604a1.306 1.306 0 01-.498.33h5.477v-3.296h.055zm8.244 1.373l6.306-5.822h2.6v12.139h-2.6v-5.823l-6.307 5.823h-2.6V11.143h2.6v5.767zm9.625-3.735c.276-.274.719-.549 1.272-.824.498-.274 1.162-.494 1.881-.714.72-.22 1.549-.384 2.49-.494.885-.11 1.88-.165 2.987-.165 2.047 0 3.817.22 5.2.605 1.383.384 2.434.878 3.098 1.428v-1.758h2.6v12.138h-2.655v-1.757c-.664.55-1.715.988-3.098 1.428-1.383.384-3.154.604-5.2.604-1.052 0-2.047-.055-2.988-.22-.94-.11-1.77-.274-2.49-.494-.719-.22-1.382-.44-1.88-.714a6.337 6.337 0 01-1.273-.824v-8.239h.056zm11.451 5.658c.83-.165 1.55-.33 2.158-.55.553-.22 1.051-.439 1.383-.604.332-.22.553-.384.719-.494-.111-.11-.387-.275-.719-.494-.332-.22-.83-.385-1.383-.605-.609-.22-1.328-.384-2.158-.549-.83-.165-1.77-.22-2.877-.22-1.106 0-2.046.055-2.876.22-.83.165-1.55.33-2.102.55-.554.22-1.052.384-1.383.604-.332.22-.554.384-.72.494.111.11.388.274.72.494.331.22.83.44 1.383.604.553.22 1.272.385 2.102.55.83.164 1.77.22 2.876.22 1.107 0 2.047-.056 2.877-.22zm8.741-5.657c.332-.275.774-.55 1.383-.824.608-.275 1.327-.495 2.157-.66.83-.22 1.77-.384 2.822-.494 1.051-.11 2.157-.22 3.319-.22V5.597h2.6v5.383c2.489.055 4.592.274 6.196.714 1.659.439 2.821.933 3.485 1.537v8.02c-.664.604-1.826 1.098-3.485 1.537-1.66.44-3.707.66-6.196.714v5.877h-2.6v-5.877c-1.217-.055-2.324-.11-3.319-.22a18.646 18.646 0 01-2.822-.494c-.83-.22-1.549-.439-2.157-.714-.609-.274-1.051-.549-1.383-.823v-8.074zm2.268 4.449c.387.22.94.384 1.604.604.664.22 1.494.384 2.434.549.941.165 2.047.274 3.32.33v-3.68a44.841 44.841 0 00-3.32.274c-.94.165-1.77.33-2.434.494a10.55 10.55 0 00-1.604.55c-.387.165-.664.33-.775.494.111.055.388.165.775.385zm9.958 1.427c1.272-.054 2.378-.164 3.319-.329.94-.165 1.77-.33 2.434-.55.664-.164 1.217-.384 1.604-.603.388-.165.664-.33.775-.44-.166-.11-.387-.274-.775-.494-.387-.165-.94-.385-1.604-.55-.664-.164-1.494-.384-2.434-.494-.996-.165-2.102-.22-3.319-.274v3.734zm12.945-2.142l6.306-5.822h2.6v12.139h-2.6v-5.823l-6.306 5.823h-2.601V11.143h2.601v5.767zm22.514 6.372h-2.6v-7.69h-3.596v3.625c0 .66-.055 1.264-.111 1.758-.11.494-.276.934-.553 1.263-.276.33-.719.604-1.272.77-.553.164-1.273.274-2.213.274h-2.545V20.7h.443c.719 0 1.162-.165 1.438-.549.277-.384.387-.989.387-1.922v-7.086h10.677v12.139h-.055zm17.704-2.032c-.609.549-1.605 1.043-3.043 1.427-1.438.385-3.319.605-5.532.605h-8.354V11.143h2.6v2.801h5.864c1.052 0 1.992.055 2.932.165.886.11 1.715.275 2.49.44.719.164 1.383.384 1.881.604.498.22.94.494 1.217.714v5.383h-.055zm-7.911-1.703c1.106 0 1.991-.055 2.766-.11.774-.055 1.438-.165 1.936-.22.498-.11.885-.22 1.162-.33.276-.11.442-.219.553-.329-.111-.055-.277-.165-.553-.274a7.937 7.937 0 00-1.162-.33c-.498-.11-1.162-.165-1.936-.22a38.61 38.61 0 00-2.766-.11h-6.473v1.868h6.473v.055zm17.593-.22l3.374-8.184H192v12.139h-2.545v-8.623l-3.54 8.623h-4.758l-3.596-8.514v8.514h-4.481V11.143h5.532l3.486 8.184zM55.71 56.716v-5.105h1.34v1.87h2.043v-1.87h1.34v5.105h-1.34v-2.013H57.05v2.013h-1.34zm8.951 0v-.503c-.352.431-.916.647-1.55.647-.775 0-1.762-.575-1.762-1.654 0-1.15.916-1.654 1.762-1.654.634 0 1.268.216 1.55.648v-.648c0-.503-.423-.862-1.057-.862-.564 0-1.057.215-1.48.575l-.493-.863c.634-.575 1.41-.791 2.185-.791 1.127 0 2.184.431 2.184 1.941v3.308h-1.339v-.144zm0-1.222v-.647c-.211-.288-.634-.432-1.057-.432-.493 0-.916.288-.916.791 0 .503.423.72.916.72.423 0 .846-.145 1.057-.432zm2.184-1.294c0-1.582 1.128-2.66 2.608-2.66.986 0 1.62.43 1.973.934l-.846.79c-.211-.359-.564-.575-1.057-.575-.775 0-1.339.576-1.339 1.439 0 .862.564 1.51 1.34 1.51.422 0 .845-.216 1.056-.576l.846.791c-.352.504-.916.935-1.973.935-1.48.072-2.608-1.007-2.608-2.588zm6.483 2.516v-3.883h-1.41v-1.15h4.088v1.15h-1.41v3.883h-1.268zm3.171-2.516c0-1.439.987-2.66 2.607-2.66 1.621 0 2.608 1.221 2.608 2.66 0 1.438-.987 2.66-2.608 2.66-1.62 0-2.607-1.222-2.607-2.66zm3.876 0c0-.791-.493-1.439-1.269-1.439-.845 0-1.268.648-1.268 1.438 0 .791.423 1.51 1.268 1.51.776-.071 1.269-.719 1.269-1.51zm2.043 2.516l1.128-1.87c-.564-.143-1.128-.646-1.128-1.581 0-.863.635-1.654 1.692-1.654h3.03v5.105H85.8V54.99h-.987l-.986 1.726h-1.41zm3.453-2.876v-1.079h-1.48c-.352 0-.563.216-.563.504 0 .36.211.575.564.575h1.48zm9.726-2.157v3.883h.635v2.444h-1.34v-1.294H88.41v-5.105h1.34v3.955h1.62v-3.883h1.339v3.883h1.62v-3.883h1.27zm4.51 5.033v-.503c-.352.431-.916.647-1.55.647-.775 0-1.762-.575-1.762-1.654 0-1.15.916-1.654 1.762-1.654.634 0 1.268.216 1.55.648v-.648c0-.503-.422-.862-1.057-.862-.563 0-1.057.215-1.48.575l-.493-.863c.634-.575 1.41-.791 2.185-.791 1.127 0 2.184.431 2.184 1.941v3.308h-1.339v-.144zm0-1.222v-.647c-.211-.288-.634-.432-1.057-.432-.493 0-.916.288-.916.791 0 .503.423.72.916.72.423 0 .846-.145 1.057-.432zm2.255 1.222l1.128-1.87c-.564-.143-1.128-.646-1.128-1.581 0-.863.634-1.654 1.691-1.654h3.031v5.105h-1.339V54.99h-.987l-.986 1.726h-1.41zm3.524-2.876v-1.079h-1.48c-.353 0-.564.216-.564.504 0 .36.211.575.564.575h1.48zm4.862.144c0-2.445.846-3.595 2.607-3.811.846-.144 1.128-.288 1.128-.431h1.339c0 1.006-1.269 1.294-2.044 1.366-1.198.144-1.691.647-1.762 1.294.423-.503.987-.863 1.692-.863 1.409 0 2.325 1.222 2.325 2.66 0 1.439-.986 2.661-2.607 2.661-1.691 0-2.678-1.294-2.678-2.876zm3.876.144c0-.791-.494-1.438-1.269-1.438-.845 0-1.268.647-1.268 1.438 0 .79.423 1.51 1.268 1.51.846 0 1.269-.648 1.269-1.51zm2.325 2.588v-5.105h1.339v3.092l2.043-3.092h1.339v5.105h-1.339v-3.164l-2.114 3.164h-1.268zm5.638-2.732c0-2.445.846-3.595 2.607-3.811.846-.144 1.128-.288 1.128-.431h1.339c0 1.006-1.268 1.294-2.044 1.366-1.198.144-1.691.647-1.761 1.294.422-.503.986-.863 1.691-.863 1.409 0 2.325 1.222 2.325 2.66 0 1.439-.986 2.661-2.607 2.661-1.691 0-2.678-1.294-2.678-2.876zm3.946.144c0-.791-.493-1.438-1.268-1.438s-1.268.647-1.268 1.438c0 .79.422 1.51 1.268 1.51.846 0 1.268-.648 1.268-1.51zm1.762 1.653c.422 0 .634-.431.775-1.653l.352-2.445h4.017v5.105H132.1v-3.883h-1.55l-.141 1.438c-.212 1.726-.846 2.589-2.114 2.589v-1.15zm6.341.935v-5.105h1.339v3.092l2.044-3.092h1.339v5.105h-1.339v-3.164l-2.114 3.164h-1.269zm5.638-2.516c0-1.439.986-2.66 2.607-2.66 1.621 0 2.608 1.221 2.608 2.66 0 1.438-.987 2.66-2.608 2.66s-2.607-1.222-2.607-2.66zm3.876 0c0-.791-.494-1.439-1.269-1.439-.846 0-1.268.648-1.268 1.438 0 .791.422 1.51 1.268 1.51.775-.071 1.269-.719 1.269-1.51zm3.172 2.516v-3.883h-1.41v-1.15h4.087v1.15h-1.409v3.883h-1.268zm3.17-2.516c0-1.439 1.057-2.66 2.607-2.66 1.48 0 2.467 1.15 2.467 2.803v.288h-3.665c.071.647.564 1.15 1.41 1.15.422 0 .986-.215 1.339-.503l.563.863c-.493.431-1.268.719-2.043.719-1.551 0-2.678-1.079-2.678-2.66zm2.537-1.582c-.846 0-1.198.647-1.198 1.15h2.466c-.07-.575-.423-1.15-1.268-1.15zm6.625 4.098l-1.339-1.941-.564.647v1.294h-1.339v-5.105h1.339v2.229l1.903-2.229h1.62l-1.973 2.3 2.044 2.805h-1.691zm5.145 0v-.503c-.353.431-.916.647-1.551.647-.775 0-1.761-.575-1.761-1.654 0-1.15.916-1.654 1.761-1.654.635 0 1.269.216 1.551.648v-.648c0-.503-.423-.862-1.057-.862-.564 0-1.057.215-1.48.575l-.494-.863c.635-.575 1.41-.791 2.185-.791 1.128 0 2.185.431 2.185 1.941v3.308h-1.339v-.144zm0-1.222v-.647c-.212-.288-.635-.432-1.057-.432-.494 0-.916.288-.916.791 0 .503.422.72.916.72.422 0 .845-.145 1.057-.432zM59.093 67.573v-3.882H57.05v3.882h-1.34v-5.105h4.652v5.105h-1.269zm2.257-2.588c0-1.438.986-2.66 2.606-2.66 1.621 0 2.608 1.222 2.608 2.66 0 1.438-.987 2.66-2.607 2.66-1.621.073-2.608-1.15-2.608-2.66zm3.875 0c0-.79-.493-1.438-1.268-1.438-.846 0-1.269.647-1.269 1.438 0 .791.423 1.51 1.268 1.51.846 0 1.269-.647 1.269-1.51zm1.69 1.869l.563-.862c.494.431 1.128.575 1.692.575.634 0 1.057-.216 1.057-.575 0-.36-.423-.576-1.128-.576h-.986V64.41h.986c.705 0 .987-.216.987-.576 0-.287-.423-.503-.987-.503-.634 0-1.127.216-1.55.575l-.634-.79c.493-.504 1.198-.863 2.114-.863 1.55 0 2.396.503 2.396 1.366 0 .647-.635 1.078-1.269 1.222.634.072 1.41.431 1.41 1.223 0 .862-.916 1.51-2.396 1.51-.916.143-1.762-.216-2.255-.72zm5.709.719v-5.105h1.34v3.092l2.043-3.092h1.339v5.105h-1.34V64.41l-2.113 3.163h-1.269zm6.764.001V63.69h-1.41v-1.15h4.088v1.15h-1.41v3.883h-1.268zm3.453-.001v-5.105h1.339v3.092l2.044-3.092h1.338v5.105h-1.338V64.41l-2.115 3.163h-1.268zm5.919 0v-5.105h3.172c.986 0 1.55.647 1.55 1.295 0 .575-.352 1.006-.846 1.15.564.144.917.647.917 1.222 0 .791-.564 1.367-1.55 1.367H88.76v.072zm3.313-3.595c0-.287-.141-.431-.493-.431h-1.55v.863h1.55c.352 0 .493-.144.493-.432zm.07 2.014a.487.487 0 00-.493-.504h-1.62v.935h1.62c.352.072.493-.144.493-.431zm2.114-1.007c0-1.438.986-2.66 2.607-2.66 1.621 0 2.608 1.222 2.608 2.66 0 1.438-.987 2.66-2.608 2.66-1.62.073-2.607-1.15-2.607-2.66zm3.876 0c0-.79-.493-1.438-1.269-1.438-.845 0-1.268.647-1.268 1.438 0 .791.423 1.51 1.268 1.51.846 0 1.269-.647 1.269-1.51zm2.325 2.588v-5.105h3.172c.986 0 1.55.647 1.55 1.295 0 .575-.352 1.006-.846 1.15.564.144.916.647.916 1.222 0 .791-.563 1.367-1.55 1.367h-3.242v.072zm3.313-3.595c0-.287-.141-.431-.494-.431h-1.55v.863h1.55c.353 0 .494-.144.494-.432zm.141 2.014a.487.487 0 00-.494-.504h-1.621v.935h1.621c.282.072.494-.144.494-.431z"/><defs><linearGradient id="bqpaint0_linear_2008_4227" x1="60.084" x2="140.354" y1="53.666" y2="24.819" gradientUnits="userSpaceOnUse"><stop offset=".051" stop-color="#39B54A"/><stop offset=".331" stop-color="#FDB913"/><stop offset=".636" stop-color="#EF5CA1"/><stop offset=".957" stop-color="#1C75BC"/></linearGradient><linearGradient id="bqpaint1_linear_2008_4227" x1="-.867" x2="50.001" y1="27.422" y2="8.928" gradientUnits="userSpaceOnUse"><stop offset=".051" stop-color="#39B54A"/><stop offset=".331" stop-color="#FDB913"/><stop offset=".636" stop-color="#EF5CA1"/><stop offset=".957" stop-color="#1C75BC"/></linearGradient></defs></svg><svg xmlns="http://www.w3.org/2000/svg" width="28" height="28" y="371" fill="none" viewBox="-2 -2 28 28"><path fill="#fff" d="M24 12.073C24 5.405 18.628 0 12 0S0 5.405 0 12.073C0 18.1 4.388 23.094 10.125 24v-8.437H7.078v-3.49h3.047v-2.66c0-3.025 1.79-4.697 4.533-4.697 1.312 0 2.686.236 2.686.236v2.971H15.83c-1.49 0-1.955.931-1.955 1.886v2.264h3.328l-.532 3.49h-2.796V24C19.613 23.095 24 18.1 24 12.073z"/></svg><svg xmlns="http://www.w3.org/2000/svg" width="28" height="28" x="28" y="371" fill="none" viewBox="-2 -2 28 28"><path fill="#fff" fill-rule="evenodd" d="M1.7 1.7C0 3.35 0 6.1 0 11.5v1c0 5.4 0 8.15 1.7 9.8C3.35 24 6.1 24 11.5 24h1c5.4 0 8.15 0 9.8-1.7 1.7-1.65 1.7-4.4 1.7-9.8v-1c0-5.4 0-8.15-1.7-9.8C20.65 0 17.9 0 12.5 0h-1C6.1 0 3.35 0 1.7 1.7zm3.05 5.8H6.5c.45 0 .6.2.8.7.85 2.5 2.3 4.65 2.9 4.65.2 0 .3-.1.3-.65V9.6c-.05-.75-.3-1.05-.5-1.3-.1-.15-.2-.25-.2-.4 0-.2.15-.4.45-.4H13c.35 0 .5.2.5.65v3.45c0 .35.15.5.25.5.2 0 .4-.15.8-.55 1.25-1.4 2.15-3.6 2.15-3.6.1-.25.3-.5.75-.5h1.75c.55 0 .65.25.55.65-.2 1-2.35 4-2.35 4-.2.3-.25.45 0 .8.1.15.3.3.5.55.25.2.5.5.7.7.75.85 1.3 1.55 1.5 2.05.15.5-.1.75-.6.75h-1.75c-.45 0-.7-.25-1.2-.85-.2-.25-.5-.55-.85-.9-1.05-1-1.5-1.15-1.75-1.15-.35 0-.45.1-.45.6v1.55c0 .45-.15.7-1.25.7-1.85 0-3.9-1.15-5.35-3.2C4.75 10.75 4.15 8.45 4.15 8c0-.25.1-.5.6-.5z" clip-rule="evenodd"/></svg><svg xmlns="http://www.w3.org/2000/svg" width="44" height="44" x="125" y="265" fill="none" viewBox="-2 -2 44 44"><path stroke="#fff" stroke-linecap="round" stroke-linejoin="round" stroke-width="1.539" d="M14.632 22.306h-.77a1.539 1.539 0 01-1.538-1.538v-6.923a1.538 1.538 0 011.539-1.538h6.924a1.539 1.539 0 011.539 1.538v.77m-3.078 3.076h6.924c.85 0 1.539.689 1.539 1.538v6.923c0 .85-.69 1.538-1.539 1.538h-6.924c-.85 0-1.539-.688-1.539-1.538V19.23c0-.85.69-1.538 1.54-1.538z"/></svg><svg xmlns="http://www.w3.org/2000/svg" width="44" height="44" x="169" y="265" fill="none" viewBox="-2 -2 44 44"><path fill="#fff" fill-rule="evenodd" d="M22.283 31.255h-4.599V20.24h-2.298v-3.795h2.299v-2.278c0-3.097 1.296-4.938 4.983-4.938h3.07v3.796h-1.919c-1.435 0-1.53.53-1.53 1.52l-.006 1.9h3.475l-.407 3.795h-3.068z" clip-rule="evenodd"/></svg><svg xmlns="http://www.w3.org/2000/svg" width="44" height="44" x="213" y="265" fill="none" viewBox="-2 -2 44 44"><path fill="#fff" fill-rule="evenodd" d="M23.804 19.983c-1.455 1.146-3.791 1.146-3.791 1.146s-2.337 0-3.792-1.146c-1.076-.848-1.886-.36-2.179.228-.51 1.023.067 1.518 1.366 2.352 1.11.713 2.636.98 3.621 1.079l-.822.822-3.052 3.05a1.187 1.187 0 000 1.68l.14.14a1.188 1.188 0 001.68 0l3.051-3.052 3.052 3.051a1.188 1.188 0 001.68 0l.14-.14a1.187 1.187 0 000-1.678l-3.052-3.052-.825-.824c.986-.101 2.495-.369 3.596-1.076 1.3-.834 1.875-1.329 1.366-2.352-.293-.587-1.102-1.076-2.179-.228zm-1.243-5.575a2.548 2.548 0 11-5.096 0 2.548 2.548 0 015.096 0zm2.63-.002a5.178 5.178 0 00-5.178-5.177 5.178 5.178 0 105.179 5.177z" clip-rule="evenodd"/></svg><svg xmlns="http://www.w3.org/2000/svg" width="44" height="44" x="257" y="265" fill="none" viewBox="-2 -2 44 44"><path fill="#fff" fill-rule="evenodd" d="M19.024 26.138h1.195s.361-.043.546-.257c.17-.197.164-.567.164-.567s-.023-1.752.721-2.007c.734-.251 1.677 1.674 2.676 2.415.755.56 1.33.416 1.33.416l2.67.003s1.398-.115.735-1.301c-.054-.097-.386-.878-1.986-2.482-1.675-1.679-1.45-1.407.567-4.311 1.229-1.769 1.72-2.849 1.566-3.31-.146-.442-1.043-.366-1.043-.366h-3.014s-.224-.024-.389.083c-.161.104-.265.375-.265.375s-.476 1.394-1.111 2.558c-1.34 2.456-1.875 2.586-2.094 2.433-.509-.355-.382-1.428-.382-2.19 0-2.38.335-3.372-.65-3.629-.327-.085-.568-.141-1.405-.15-1.073-.013-1.98.003-2.495.275-.342.18-.606.584-.445.607.198.03.649.131.887.482.308.453.297 1.47.297 1.47s.178 2.802-.413 3.15c-.405.238-.961-.249-2.155-2.477-.612-1.141-1.074-2.427-1.074-2.427s-.09-.236-.248-.362a1.186 1.186 0 00-.462-.201l-2.858.001s-.429.013-.587.215c-.14.179-.01.55-.01.55s2.236 5.695 4.77 8.544c2.324 2.613 4.962 2.46 4.962 2.46" clip-rule="evenodd"/></svg></svg>