<svg height="16" viewBox="0 0 16 16" width="16" xmlns="http://www.w3.org/2000/svg"><path d="m2 0h12c1.1045695 0 2 .8954305 2 2v12c0 1.1045695-.8954305 2-2 2h-12c-1.1045695 0-2-.8954305-2-2v-12c0-1.1045695.8954305-2 2-2zm12.0022521 4.00905321c-.4275966-.22171877-.9502296-.41176247-1.5361905-.58597199-.5859831-.15837087-1.251126-.30090532-1.9954734-.42760113-.76017924-.09502252-1.58370865-.15837086-2.48642015-.15837086-.8710476 0-1.67874506.04751126-2.4072381.15837086-.76020161.11085939-1.42534452.25339384-2.02715963.42760113-.60180841.17420952-1.10859385.38008964-1.53619721.58597199-.42760112.221721-.77601569.45927619-1.01357311.68099496v6.61990143c.23755742.2217143.58597199.4592829 1.01357311.6651652.42760336.2217143.9343888.4275967 1.53619721.5859609.60181511.1742184 1.2828123.3167506 2.02715963.427619.74432499.1108459 1.55202246.1741961 2.4072381.1741961.9027115 0 1.74207286-.0633502 2.48642015-.1741961.7443474-.0950364 1.4094903-.2375686 1.9954734-.427619.5859609-.1583642 1.0927619-.3642466 1.5361905-.5859609.4275967-.2217143.7601793-.4434509.9977479-.6651652v-6.61990143c-.2375686-.22171877-.5701512-.45927396-.9977479-.68099496zm-2.0113053.30090532c0-.11085938.095014-.17420729.2058823-.14253445.0633502.01583865.1267003.03167507.1900504.04751148.110846.03167507.2058824.14253445.2058824.25339384v.45927619c0 .11085938-.0950364.17420952-.2058824.14252329-.0633501-.01582749-.1267002-.03166391-.1900504-.04750032-.1108683-.03167507-.2058823-.14253446-.2058823-.25339384 0-.14253445 0-.30090532 0-.45927619zm-1.7262409-.33257815c0-.11085939.095014-.19004594.2058823-.17420952.0633502.01583865.1267003.01583865.2058824.03167506.110846.01583642.2058823.12669804.2058823.23755742v.45927396c0 .11086162-.0950363.19004594-.2058823.17420952-.0633501-.01583865-.1267003-.01583865-.2058824-.03167507-.1108683-.01583642-.2058823-.1266958-.2058823-.23755518 0-.14253446 0-.30090533 0-.45927619zm-1.74209521-.15837087c0-.11085939.09503637-.20588236.20588236-.19004594.06335013 0 .14253221 0 .20588235.01583642.11086832 0 .20588235.11086162.20588235.221721v.45927396c0 .11086162-.09501403.19004593-.20588235.19004593-.06335014 0-.14253222 0-.20588235-.01583641-.11084599 0-.20588236-.09502297-.20588236-.20588236 0-.15837087 0-.31674173 0-.4751126zm-1.75790481.03167283c0-.11085938.09501404-.20588235.20588236-.22171877h.20588235c.11084599 0 .20588235.07918655.20588235.19004594v.45927619c0 .11085938-.09503636.20588012-.20588235.20588012-.06335014 0-.14253222.00000223-.20588235.01583865-.11086832 0-.20588236-.07918655-.20588236-.19004594 0-.14253445 0-.30090532 0-.45927619zm-1.74207286.221721c0-.11085938.09501404-.221721.20586003-.23755742.06335013-.01583641.12670026-.01583641.20588235-.03167506.11086832-.01583642.20588235.06335013.20588235.17420952v.45927619c0 .11085938-.09501403.22171876-.20588235.23755518-.06332781.01583642-.12667794.01583642-.20588235.03167507-.11084599.01583642-.20586003-.04751149-.20586003-.17420952 0-.14253222 0-.30090309 0-.45927396zm-1.71040895.41176248c0-.11085939.09501403-.22171877.20588235-.25339161.06335013-.01583865.12667794-.03167506.19002807-.04751148.11086832-.03167507.20588235.03167283.20588235.14253222v.45927619c0 .11085938-.09501403.22171877-.20588235.25339383-.06335013.01583642-.12667794.03166391-.19002807.04751819-.11086832.0316639-.20588235-.03168177-.20588235-.14254115 0-.15837087 0-.31674174 0-.45927619zm-1.67874059.58596306c0-.11084822.07918655-.23754626.19004593-.28505774.0633479-.03167284.1266958-.04751149.1900437-.07918432.11086162-.04751149.19004594.01583642.19004594.1266958v.45928289c0 .11084599-.09502297.23754625-.19004594.26923249-.0633479.0316639-.1266958.04749585-.1900437.07918208-.09502297.06335014-.19004593 0-.19004593-.11086832 0-.14253221 0-.30089638 0-.45928288zm.58597199 5.90723812c0 .1108683-.09502074.1742184-.19004371.1267002-.06335013-.0316639-.12669803-.0474958-.19004593-.079182-.11085939-.0316639-.20588235-.1583642-.20588235-.2692325 0-.1583642 0-.3167284 0-.4592829 0-.110846.07918655-.1583642.19004593-.126678.0633479.0316639.1266958.0474959.1900437.0791821.11086162.0474959.19004594.1583642.19004594.2692325.01583642.1583642.01583642.3008964.01583642.4592606zm1.69456137.522633c0 .1108683-.09501403.1742185-.20588235.1425322-.06335013-.0158319-.12667794-.0316639-.19002807-.0475182-.11086832-.0316639-.20588235-.1425322-.20588235-.2533782 0-.1583865 0-.3167506 0-.4592829 0-.1108683.09501403-.1742184.20588235-.1425322.06335013.015832.12667794.0316639.19002807.0475182.11086832.0316639.20588235.1425322.20588235.2533782zm1.72624091.3484146c0 .1108683-.09501403.1900504-.20588235.1742184-.06332781-.0158543-.12667794-.0158543-.20588235-.0316862-.11084599-.015832-.20586003-.1267003-.20586003-.2375463 0-.1583865 0-.3167506 0-.4592829 0-.1108683.09501404-.1900504.20586003-.1742184.06335013.0158543.12670026.0158543.20588235.0316862.11086832.015832.20588235.1267003.20588235.2375463zm1.74209519.1425322c0 .1108683-.09503636.2058823-.20588235.1900504-.06335014 0-.14253222 0-.20588235-.015832-.11086832 0-.20588236-.1108683-.20588236-.2217366 0-.1583642 0-.3167283 0-.4592606 0-.1108683.09501404-.1900504.20588236-.1900504.06335013 0 .14253221 0 .20588235.015832.11084599 0 .20588235.0950364.20588235.2058824zm1.75790481-.0316639c0 .110846-.09501403.2058823-.20588235.2217143-.06335014 0-.14253222 0-.20588235.0158319-.11084599 0-.20588236-.079182-.20588236-.1900504 0-.1583641 0-.3167283 0-.4592605 0-.1108683.09503637-.2058824.20588236-.2058824.06335013 0 .14253221 0 .20588235-.0158543.11086832 0 .20588235.0792045.20588235.1900505zm1.74209515-.2058824c0 .110846-.0950363.2217143-.2058823.2375463-.0633501.0158319-.1267003.0158319-.2058824.0316862-.1108683.015832-.2058823-.0633501-.2058823-.1742184 0-.1583642 0-.3167507 0-.4592829 0-.110846.095014-.2217143.2058823-.2375463.0633502-.0158319.1267003-.0158319.2058824-.0316862.110846-.015832.2058823.0475182.2058823.1742184zm1.710409-.4117647c0 .110846-.0950364.2217143-.2058824.2533782-.0633501.0158543-.1267002.0316863-.1900504.0475182-.1108683.0316863-.2058823-.0316639-.2058823-.1425322 0-.1583642 0-.3167507 0-.4592829 0-.110846.095014-.2217143.2058823-.2533782.0633502-.0158543.1267003-.0316862.1900504-.0475182.110846-.0316862.2058824.0316639.2058824.1425322zm-.5068011-2.4389243c-.4909468.1583865-1.0610756.31675067-1.7420728.44345093-.68099723.12667794-1.45700845.19002808-2.35971995.19002808-.88687955 0-1.67874506-.06335014-2.35974225-.19002808-.68099719-.12670026-1.25112607-.26923248-1.72624091-.44345093-.47511484-.15836417-.85520001-.33258262-1.12443026-.5226107-.28506891-.17421845-.47511261-.31675067-.57013558-.39593275.09502297-.09503637.30090532-.2217143.57013558-.39593276.28506667-.15836417.66514737-.33258262 1.12443026-.49094679.47511484-.15836417 1.04524372-.31675067 1.72624091-.4434286.68099719-.11086832 1.45700842-.17421846 2.35974225-.17421846.88685721 0 1.67872272.06335014 2.35971995.17421846.6809972.12667793 1.251126.26921015 1.7420728.4434286.4751149.15836417.8552157.33258262 1.1244482.49094679.2850644.17421846.4750925.31675067.5701288.39593276-.0950363.09501403-.3009187.2217143-.5701288.39593275-.2692325.19002808-.6493333.36424653-1.1244482.5226107zm2.1855238 1.8529412c0 .1108683-.0791821.2375686-.1900504.2850644-.0633501.0316862-.1267002.0475182-.1900504.0791821-.110846.0475182-.1900281-.015832-.1900281-.1266779 0-.1583865 0-.3167507 0-.4592829 0-.1108683.0950141-.2375686.1900281-.2692325.0633502-.0316639.1267003-.0475182.1900504-.0791821.1108683-.0475182.1900504.0158319.1900504.1267003zm0-5.22624094c0 .11086832-.0791821.15836417-.1900504.12670027-.0633501-.0316639-.1267002-.04751818-.1900504-.07918208-.110846-.04751819-.1900281-.15836417-.1900281-.26923249 0-.15836417 0-.31674397 0-.45927619 0-.11086162.0950141-.17420952.1900281-.12669803.0633502.03167506.1267003.04751148.1900504.07918655.1108683.04751148.1900504.17420728.1900504.28507337z"/></svg>