<svg xmlns="http://www.w3.org/2000/svg" width="40" height="40" fill="none" viewBox="0 0 40 40"><path fill="#fff" fill-rule="evenodd" d="M23.804 19.983c-1.455 1.146-3.791 1.146-3.791 1.146s-2.337 0-3.792-1.146c-1.076-.848-1.886-.36-2.179.228-.51 1.023.067 1.518 1.366 2.352 1.11.713 2.636.98 3.621 1.079l-.822.822-3.052 3.05a1.187 1.187 0 000 1.68l.14.14a1.188 1.188 0 001.68 0l3.051-3.052 3.052 3.051a1.188 1.188 0 001.68 0l.14-.14a1.187 1.187 0 000-1.678l-3.052-3.052-.825-.824c.986-.101 2.495-.369 3.596-1.076 1.3-.834 1.875-1.329 1.366-2.352-.293-.587-1.102-1.076-2.179-.228zm-1.243-5.575a2.548 2.548 0 11-5.096 0 2.548 2.548 0 015.096 0zm2.63-.002a5.178 5.178 0 00-5.178-5.177 5.178 5.178 0 105.179 5.177z" clip-rule="evenodd"/></svg>