<svg xmlns="http://www.w3.org/2000/svg" width="40" height="40" fill="none" viewBox="0 0 40 40"><path fill="#fff" fill-rule="evenodd" d="M19.024 26.138h1.195s.361-.043.546-.257c.17-.197.164-.567.164-.567s-.023-1.752.721-2.007c.734-.251 1.677 1.674 2.676 2.415.755.56 1.33.416 1.33.416l2.67.003s1.398-.115.735-1.301c-.054-.097-.386-.878-1.986-2.482-1.675-1.679-1.45-1.407.567-4.311 1.229-1.769 1.72-2.849 1.566-3.31-.146-.442-1.043-.366-1.043-.366h-3.014s-.224-.024-.389.083c-.161.104-.265.375-.265.375s-.476 1.394-1.111 2.558c-1.34 2.456-1.875 2.586-2.094 2.433-.509-.355-.382-1.428-.382-2.19 0-2.38.335-3.372-.65-3.629-.327-.085-.568-.141-1.405-.15-1.073-.013-1.98.003-2.495.275-.342.18-.606.584-.445.607.198.03.649.131.887.482.308.453.297 1.47.297 1.47s.178 2.802-.413 3.15c-.405.238-.961-.249-2.155-2.477-.612-1.141-1.074-2.427-1.074-2.427s-.09-.236-.248-.362a1.186 1.186 0 00-.462-.201l-2.858.001s-.429.013-.587.215c-.14.179-.01.55-.01.55s2.236 5.695 4.77 8.544c2.324 2.613 4.962 2.46 4.962 2.46" clip-rule="evenodd"/></svg>